<?xml version="1.0" encoding="utf-8"?>
<svg id="master-artboard" viewBox="0 0 335.9859924316406 200" version="1.1" xmlns="http://www.w3.org/2000/svg" x="0px" y="0px" width="335.9859924316406px" height="200px" enable-background="new 0 0 335.986 235.19"><rect id="ee-background" x="0" y="0" width="335.9859924316406" height="200" style="fill: white; fill-opacity: 0; pointer-events: none;"/>

<path fill="#8DB87F" d="M258.154,100.537c0,49.229-39.906,89.129-89.129,89.129c-49.219,0-89.126-39.9-89.126-89.129&#10;&#9;&#9;c0-49.229,39.907-89.13,89.126-89.13C218.248,11.407,258.154,51.308,258.154,100.537z" transform="matrix(1, 0, 0, 1, 0, -7.105427357601002e-15)"/>



<path d="M 321.200994 140.688004 A 27.136999 27.136999 0 0 1 294.063995 167.825003 A 27.136999 27.136999 0 0 1 266.926996 140.688004 A 27.136999 27.136999 0 0 1 294.063995 113.551004 A 27.136999 27.136999 0 0 1 321.200994 140.688004 Z" fill="#F3F3F3" transform="matrix(1, 0, 0, 1, 0, -7.105427357601002e-15)"/>
<path fill="#324D59" d="M314.686,120.066c1.75,1.748,1.752,4.588,0,6.34l-2.842,2.838c-1.75,1.752-4.588,1.752-6.338,0l0,0&#10;&#9;&#9;c-1.75-1.748-1.75-4.586,0-6.338l2.84-2.84C310.098,118.315,312.936,118.315,314.686,120.066L314.686,120.066z" transform="matrix(1, 0, 0, 1, 0, -7.105427357601002e-15)"/>
<path d="M 314.365995 140.688004 A 20.302 20.302 0 0 1 294.063995 160.990004 A 20.302 20.302 0 0 1 273.761995 140.688004 A 20.302 20.302 0 0 1 294.063995 120.386003 A 20.302 20.302 0 0 1 314.365995 140.688004 Z" fill="#FFFFFF" transform="matrix(1, 0, 0, 1, 0, -7.105427357601002e-15)"/>
<path d="M 309.070989 140.688004 A 15.008 15.008 0 0 1 294.062988 155.696004 A 15.008 15.008 0 0 1 279.054988 140.688004 A 15.008 15.008 0 0 1 294.062988 125.680003 A 15.008 15.008 0 0 1 309.070989 140.688004 Z" fill="#406373" transform="matrix(1, 0, 0, 1, 0, -7.105427357601002e-15)"/>
<path d="M 304.457995 140.688995 A 10.394 10.394 0 0 1 294.063995 151.082995 A 10.394 10.394 0 0 1 283.669995 140.688995 A 10.394 10.394 0 0 1 294.063995 130.294995 A 10.394 10.394 0 0 1 304.457995 140.688995 Z" fill="#1D2C33" transform="matrix(1, 0, 0, 1, 0, -7.105427357601002e-15)"/>
<path fill="#737373" d="M288.434,135.352c1.365,1.367,1.367,3.584,0,4.949s-3.582,1.365-4.949-0.002&#10;&#9;&#9;c-1.365-1.363-1.365-3.58,0-4.947C284.852,133.986,287.066,133.986,288.434,135.352z" transform="matrix(1, 0, 0, 1, 0, -7.105427357601002e-15)"/>





<path fill="#1D2C33" d="M36.61,23.727c10.359-2.955,21.154,3.047,24.107,13.408c2.955,10.359-3.045,21.153-13.404,24.108&#10;&#9;&#9;s-21.156-3.047-24.107-13.406C20.247,37.476,26.252,26.682,36.61,23.727z" transform="matrix(0.9999999999999999, 0, 0, 0.9999999999999999, 5.566422202230342, 9.741238853903113)"/>
<path d="M 55.938 51.164001 L 68.630997 43.422001 L 56.999001 34.492001" fill="#1D2C33" transform="matrix(0.9999999999999999, 0, 0, 0.9999999999999999, 7.653830528066749, 9.04543607862432)"/>

<g transform="matrix(1, 0, 0, 1, 0, -7.105427357601002e-15)">
		<path d="M 147.813995 145.154007 H 188.677994 V 161.869007 H 147.813995 V 145.154007 Z" fill="#E4E4E4"/>
	</g><path fill="#1D2C33" d="M88.287,127.508V45.016c0-2.323,1.583-2.952,3.8-2.952h152.317c2.219,0,3.623,0.629,3.623,2.952v82.492&#10;&#9;&#9;&#9;H88.287z" transform="matrix(1, 0, 0, 1, 0, -1.4210854715202004e-14)"/><path fill="#F3F3F3" d="M88.287,127.508v13.934c0,2.215,1.583,4.641,3.8,4.641h152.317c2.219,0,3.623-2.426,3.623-4.641v-13.934&#10;&#9;&#9;&#9;H88.287z" transform="matrix(1, 0, 0, 1, 0, -1.4210854715202004e-14)"/><path d="M 95.801003 50.421001 H 240.687996 V 119.148998 H 95.801003 V 50.421001 Z" fill="#586874" transform="matrix(1, 0, 0, 1, 0, -1.4210854715202004e-14)"/><path fill="#F3F3F3" d="M201.678,165.586c0-2.045-1.668-3.717-3.713-3.717h-59.438c-2.046,0-3.715,1.672-3.715,3.717l0,0&#10;&#9;&#9;&#9;c0,2.043,1.668,3.715,3.715,3.715h59.438C200.01,169.301,201.678,167.629,201.678,165.586L201.678,165.586z" transform="matrix(1, 0, 0, 1, 0, -1.4210854715202004e-14)"/><path fill="#1D2C33" d="M171.959,135.867c0,2.051-1.66,3.715-3.716,3.715c-2.05,0-3.713-1.664-3.713-3.715&#10;&#9;&#9;&#9;c0-2.053,1.663-3.715,3.713-3.715C170.299,132.152,171.959,133.814,171.959,135.867z" transform="matrix(1, 0, 0, 1, 0, -1.4210854715202004e-14)"/>
<path fill="#1D2C33" d="M107.745,166.797c0,2.936-2.4,5.332-5.332,5.332h-57.4c-2.932,0-5.329-2.396-5.329-5.332V85.922&#10;&#9;&#9;c0-2.934,2.397-5.33,5.329-5.33h57.4c2.932,0,5.332,2.396,5.332,5.33V166.797z" transform="matrix(1, 0, 0, 1, 0, -7.105427357601002e-15)"/>
<path d="M 45.724998 87.082001 H 101.196999 V 160.639 H 45.724998 V 87.082001 Z" fill="#586874" transform="matrix(1, 0, 0, 1, 0, -7.105427357601002e-15)"/>
<path fill="#E7E7E7" d="M78.524,166.986c0,2.117-1.715,3.838-3.838,3.838c-2.118,0-3.838-1.721-3.838-3.838&#10;&#9;&#9;c0-2.119,1.72-3.838,3.838-3.838C76.809,163.148,78.524,164.867,78.524,166.986z" transform="matrix(1, 0, 0, 1, 0, -7.105427357601002e-15)"/>
<g transform="matrix(1, 0, 0, 1, 0, -7.105427357601002e-15)">
		<path fill="#1D2C33" d="M154.34,85.214c0-7.287,5.929-13.217,13.211-13.217v-9.174c-12.363,0-22.391,10.027-22.391,22.391&#10;&#9;&#9;&#9;c0,6.074,2.43,11.572,6.355,15.608l6.6-6.376C155.78,92.063,154.34,88.802,154.34,85.214z"/>
	</g><path fill="#9CCB8D" d="M179.658,79.935c0.707,1.623,1.107,3.402,1.107,5.279c0,7.285-5.928,13.216-13.215,13.216&#10;&#9;&#9;&#9;c-3.692,0-7.037-1.529-9.435-3.983l-6.6,6.376c4.067,4.182,9.741,6.782,16.035,6.782c12.367,0,22.395-10.021,22.395-22.391&#10;&#9;&#9;&#9;c0-3.062-0.617-5.982-1.732-8.638L179.658,79.935z" transform="matrix(1, 0, 0, 1, 0, -1.4210854715202004e-14)"/><path fill="#FFFFFF" d="M179.658,79.935l8.555-3.358c-3.385-8.078-11.357-13.753-20.662-13.753v9.174&#10;&#9;&#9;&#9;C172.965,71.997,177.619,75.273,179.658,79.935z" transform="matrix(1, 0, 0, 1, 0, -1.4210854715202004e-14)"/>
<path d="M 160.83099365234375 70.61000061035156 L 153.84500122070312 61.507999420166016 L 134.99200439453125 61.507999420166016 L 134.99200439453125 59.986000061035156 L 154.59500122070312 59.986000061035156 L 162.03799438476562 69.68299865722656 Z" fill="#F8F1F2" transform="matrix(1, 0, 0, 1, 0, -7.105427357601002e-15)"/>
<path d="M 175.8520050048828 70.58399963378906 L 174.60499572753906 69.70899963378906 L 181.43800354003906 59.986000061035156 L 200.843994140625 59.986000061035156 L 200.843994140625 61.507999420166016 L 182.22900390625 61.507999420166016 Z" fill="#F8F1F2" transform="matrix(1, 0, 0, 1, 0, -7.105427357601002e-15)"/>
<path d="M 200.843994140625 109.61299896240234 L 182.03500366210938 109.61299896240234 L 173.72000122070312 100.10099792480469 L 174.86599731445312 99.0989990234375 L 182.7270050048828 108.08999633789062 L 200.843994140625 108.08999633789062 Z" fill="#F8F1F2" transform="matrix(1, 0, 0, 1, 0, -7.105427357601002e-15)"/>
<path d="M 134.992004 55.592999 H 152.692005 V 58.213999 H 134.992004 V 55.592999 Z" fill="#FFFFFC" transform="matrix(1, 0, 0, 1, 0, -7.105427357601002e-15)"/>
<path d="M 116.344002 88.690002 H 134.044003 V 91.311002 H 116.344002 V 88.690002 Z" fill="#FFFFFC" transform="matrix(1, 0, 0, 1, 0, -7.105427357601002e-15)"/>
<path d="M 116.344002 93.523003 H 129.528002 V 96.144003 H 116.344002 V 93.523003 Z" fill="#FFFFFC" transform="matrix(1, 0, 0, 1, 0, -7.105427357601002e-15)"/>
<path d="M 116.344002 98.356003 H 134.044003 V 100.977003 H 116.344002 V 98.356003 Z" fill="#FFFFFC" transform="matrix(1, 0, 0, 1, 0, -7.105427357601002e-15)"/>
<path d="M 200.843994 88.731003 H 218.542994 V 96.102003 H 200.843994 V 88.731003 Z" fill="#FFFFFC" transform="matrix(1, 0, 0, 1, 0, -7.105427357601002e-15)"/>
<path d="M 200.843994 93.523003 H 218.542994 V 96.144003 H 200.843994 V 93.523003 Z" fill="#FFFFFC" transform="matrix(1, 0, 0, 1, 0, -7.105427357601002e-15)"/>
<path d="M 200.843994 98.356003 H 218.542994 V 100.977003 H 200.843994 V 98.356003 Z" fill="#FFFFFC" transform="matrix(1, 0, 0, 1, 0, -7.105427357601002e-15)"/>
<path d="M 200.843994 68.949997 H 218.542994 V 71.570997 H 200.843994 V 68.949997 Z" fill="#FFFFFC" transform="matrix(1, 0, 0, 1, 0, -7.105427357601002e-15)"/>
<path d="M 200.843994 73.782997 H 218.542994 V 76.403997 H 200.843994 V 73.782997 Z" fill="#FFFFFC" transform="matrix(1, 0, 0, 1, 0, -7.105427357601002e-15)"/>
<path d="M 200.843994 78.615997 H 214.027994 V 81.236997 H 200.843994 V 78.615997 Z" fill="#FFFFFC" transform="matrix(1, 0, 0, 1, 0, -7.105427357601002e-15)"/>
<path d="M 116.344002 68.949997 H 134.044003 V 84.672997 H 116.344002 V 68.949997 Z" fill="#FFFFFC" transform="matrix(1, 0, 0, 1, 0, -7.105427357601002e-15)"/>
<path d="M 183.145004 55.816002 H 200.844004 V 58.437002 H 183.145004 V 55.816002 Z" fill="#FFFFFC" transform="matrix(1, 0, 0, 1, 0, -7.105427357601002e-15)"/>
<path d="M 183.145004 111.357002 H 200.844004 V 113.979002 H 183.145004 V 111.357002 Z" fill="#FFFFFC" transform="matrix(1, 0, 0, 1, 0, -7.105427357601002e-15)"/>
<path d="M 153.7469940185547 109.61299896240234 L 134.93800354003906 109.61299896240234 L 134.93800354003906 108.08999633789062 L 153.05599975585938 108.08999633789062 L 160.91600036621094 99.0989990234375 L 162.06199645996094 100.10099792480469 Z" fill="#F8F1F2" transform="matrix(1, 0, 0, 1, 0, -7.105427357601002e-15)"/>
<path d="M 134.938004 111.357002 H 152.637003 V 113.979002 H 134.938004 V 111.357002 Z" fill="#FFFFFC" transform="matrix(1, 0, 0, 1, 0, -7.105427357601002e-15)"/>
<path fill="#F5EBEB" d="M264.059,200.871c0.002,4.734-3.838,8.574-8.57,8.574h-1.787c-4.732,0-8.572-3.836-8.572-8.572v-15.008&#10;&#9;&#9;c-0.002-4.732,3.836-8.572,8.57-8.572h1.787c4.732,0,8.572,3.838,8.572,8.57V200.871z" transform="matrix(0.9999999999999999, 0, 0, 0.9999999999999999, -27.136308235872974, -22.61359019656083)"/>
<path fill="#DACDCD" d="M254.148,187.918h-7.236v-2.053c0-3.74,3.045-6.785,6.787-6.785l0.445-0.002L254.148,187.918z" transform="matrix(0.9999999999999999, 0, 0, 0.9999999999999999, -27.136308756724134, -21.221984863281257)"/>
<path fill="#DACDCD" d="M262.271,187.918h-7.412v-8.84h0.623c3.744,0,6.789,3.045,6.791,6.785L262.271,187.918z" transform="matrix(0.9999999999999999, 0, 0, 0.9999999999999999, -27.136307846389883, -21.221984863281257)"/>


<path fill="#1D2C33" d="M279.057,96.42h10.893V78.264h-10.893V96.42z M282.688,81.894h3.631v10.894h-3.631V81.894z M291.766,96.42&#10;&#9;&#9;h10.893V67.37h-10.893V96.42z M295.396,71h3.631v21.787h-3.631V71z M304.475,96.42h10.893V60.107h-10.893V96.42z M311.736,92.787&#10;&#9;&#9;h-3.631V63.738h3.631V92.787z" transform="matrix(1, 0, 0, 1, 0, -7.105427357601002e-15)"/>

<path fill="#FFFFFF" d="M287.957,77.146c0,1.656-1.344,3-3,3h-52.781c-1.656,0-3-1.344-3-3v-14c0-1.656,1.344-3,3-3h52.781&#10;&#9;&#9;c1.656,0,3,1.344,3,3V77.146z" transform="matrix(1, 0, 0, 1, 0, -7.105427357601002e-15)"/>
<path fill="#606060" d="M244.855,70.677c-0.234-1.331-0.234-2.396-0.234-2.396h-0.069c0,0,0.015,1.089-0.233,2.396l-0.758,4.005&#10;&#9;&#9;c-0.414,0.061-1.144,0.109-1.984,0.109s-1.599-0.049-1.998-0.109l-1.942-8.494c0,0,0.619-0.108,1.543-0.108&#10;&#9;&#9;c0.868,0,1.351,0.108,1.351,0.108l0.867,4.211c0.234,1.162,0.304,2.215,0.304,2.215h0.055c0,0,0.027-1.041,0.248-2.202l0.785-4.224&#10;&#9;&#9;c0,0,0.606-0.108,1.847-0.108c1.199,0,1.874,0.108,1.874,0.108l0.744,4.211c0.221,1.234,0.221,2.215,0.221,2.215h0.055&#10;&#9;&#9;c0,0,0.083-0.98,0.331-2.202l0.882-4.224c0,0,0.454-0.108,1.336-0.108c0.813,0,1.378,0.108,1.378,0.108l-1.929,8.494&#10;&#9;&#9;c0,0-0.647,0.109-1.942,0.109c-1.393,0-2.026-0.109-2.026-0.109L244.855,70.677z" transform="matrix(1, 0, 0, 1, 0, -7.105427357601002e-15)"/><path fill="#606060" d="M258.818,70.677c-0.234-1.331-0.234-2.396-0.234-2.396h-0.069c0,0,0.015,1.089-0.233,2.396l-0.758,4.005&#10;&#9;&#9;c-0.414,0.061-1.144,0.109-1.984,0.109s-1.599-0.049-1.998-0.109l-1.942-8.494c0,0,0.619-0.108,1.543-0.108&#10;&#9;&#9;c0.868,0,1.351,0.108,1.351,0.108l0.867,4.211c0.234,1.162,0.304,2.215,0.304,2.215h0.055c0,0,0.027-1.041,0.248-2.202l0.785-4.224&#10;&#9;&#9;c0,0,0.606-0.108,1.847-0.108c1.199,0,1.874,0.108,1.874,0.108l0.744,4.211c0.221,1.234,0.221,2.215,0.221,2.215h0.055&#10;&#9;&#9;c0,0,0.083-0.98,0.331-2.202l0.882-4.224c0,0,0.454-0.108,1.336-0.108c0.813,0,1.378,0.108,1.378,0.108l-1.929,8.494&#10;&#9;&#9;c0,0-0.647,0.109-1.942,0.109c-1.393,0-2.026-0.109-2.026-0.109L258.818,70.677z" transform="matrix(1, 0, 0, 1, 0, -7.105427357601002e-15)"/><path fill="#606060" d="M272.781,70.677c-0.234-1.331-0.234-2.396-0.234-2.396h-0.069c0,0,0.015,1.089-0.233,2.396l-0.758,4.005&#10;&#9;&#9;c-0.414,0.061-1.144,0.109-1.984,0.109s-1.599-0.049-1.998-0.109l-1.942-8.494c0,0,0.619-0.108,1.543-0.108&#10;&#9;&#9;c0.868,0,1.351,0.108,1.351,0.108l0.867,4.211c0.234,1.162,0.304,2.215,0.304,2.215h0.055c0,0,0.027-1.041,0.248-2.202l0.785-4.224&#10;&#9;&#9;c0,0,0.606-0.108,1.847-0.108c1.199,0,1.874,0.108,1.874,0.108l0.744,4.211c0.221,1.234,0.221,2.215,0.221,2.215h0.055&#10;&#9;&#9;c0,0,0.083-0.98,0.331-2.202l0.882-4.224c0,0,0.454-0.108,1.336-0.108c0.813,0,1.378,0.108,1.378,0.108l-1.929,8.494&#10;&#9;&#9;c0,0-0.647,0.109-1.942,0.109c-1.393,0-2.026-0.109-2.026-0.109L272.781,70.677z" transform="matrix(1, 0, 0, 1, 0, -7.105427357601002e-15)"/>
<path fill="#F5F5F5" d="M64.223,93.349h32.035c0.801,0,1.509,0.654,1.509,1.456v59.701c0,0.801-0.708,1.455-1.509,1.455h-45.14&#10;&#9;&#9;c-0.801,0-1.402-0.654-1.402-1.455v-45.869L64.223,93.349z" transform="matrix(1, 0, 0, 1, 0, -7.105427357601002e-15)"/>
<path fill="#E6E6E6" d="M62.767,108.637c0.801,0,1.509-0.655,1.509-1.455V93.349l-14.614,15.288H62.767z" transform="matrix(1, 0, 0, 1, 0, -7.105427357601002e-15)"/>
<path d="M 73.740997 101.356003 H 93.398998 V 104.269003 H 73.740997 V 101.356003 Z" fill="#E6E6E6" transform="matrix(1, 0, 0, 1, 0, -7.105427357601002e-15)"/>
<path d="M 67.917 107.181 H 93.399 V 110.094 H 67.917 V 107.181 Z" fill="#E6E6E6" transform="matrix(1, 0, 0, 1, 0, -7.105427357601002e-15)"/>
<path d="M 53.355 113.005997 H 93.398998 V 115.917997 H 53.355 V 113.005997 Z" fill="#E6E6E6" transform="matrix(1, 0, 0, 1, 0, -7.105427357601002e-15)"/>
<path d="M 53.355 119.558998 H 93.398998 V 122.470998 H 53.355 V 119.558998 Z" fill="#E6E6E6" transform="matrix(1, 0, 0, 1, 0, -7.105427357601002e-15)"/>
<path d="M 53.355 126.111 H 93.398998 V 129.021 H 53.355 V 126.111 Z" fill="#E6E6E6" transform="matrix(1, 0, 0, 1, 0, -7.105427357601002e-15)"/>
<path d="M 53.355 132.662003 H 93.398998 V 135.574003 H 53.355 V 132.662003 Z" fill="#E6E6E6" transform="matrix(1, 0, 0, 1, 0, -7.105427357601002e-15)"/>
<path d="M 53.355 139.214996 H 87.574001 V 142.128996 H 53.355 V 139.214996 Z" fill="#E6E6E6" transform="matrix(1, 0, 0, 1, 0, -7.105427357601002e-15)"/>
<path fill="#FFFFFF" d="M79.899,135.975c0,1.656-1.343,3-3,3h-52.78c-1.657,0-3-1.344-3-3v-14c0-1.656,1.343-3,3-3h52.78&#10;&#9;&#9;c1.657,0,3,1.343,3,3V135.975z" transform="matrix(1, 0, 0, 1, 0, -7.105427357601002e-15)"/>
<path fill="#606060" d="M39.769,133.611c0,0-0.67,0.127-1.74,0.127s-1.74-0.127-1.74-0.127v-9.959h4.677&#10;&#9;&#9;c2.633,0,4.118,1.107,4.118,3.334s-1.484,3.348-4.118,3.348h-1.197V133.611z M40.439,128.092c0.654,0,1.069-0.336,1.069-1.105&#10;&#9;&#9;c0-0.785-0.415-1.092-1.069-1.092h-0.67v2.197H40.439z" transform="matrix(1, 0, 0, 1, 0, -7.105427357601002e-15)"/><path fill="#606060" d="M50,123.652c1.58,0,2.282,0.127,2.282,0.127l3.32,9.832c0,0-0.606,0.127-1.756,0.127&#10;&#9;&#9;c-1.069,0-1.676-0.127-1.676-0.127l-0.542-1.68H48.26l-0.543,1.68c0,0-0.638,0.127-1.676,0.127s-1.66-0.127-1.66-0.127l3.335-9.832&#10;&#9;&#9;C47.717,123.779,48.483,123.652,50,123.652z M49.904,126.174c0,0-0.032,0.84-0.335,1.793l-0.654,1.961h2.059l-0.639-1.961&#10;&#9;&#9;c-0.303-0.953-0.367-1.793-0.367-1.793H49.904z" transform="matrix(1, 0, 0, 1, 0, -7.105427357601002e-15)"/><path fill="#606060" d="M63.055,123.652c1.133,0,1.82,0.127,1.82,0.127l-3.751,6.373v3.459c0,0-0.606,0.127-1.74,0.127&#10;&#9;&#9;c-1.213,0-1.74-0.127-1.74-0.127v-3.502l-3.655-6.33c0,0,0.702-0.127,1.995-0.127c1.101,0,1.819,0.127,1.819,0.127l1.708,3.08&#10;&#9;&#9;l1.74-3.08C61.252,123.779,62.002,123.652,63.055,123.652z" transform="matrix(1, 0, 0, 1, 0, -7.105427357601002e-15)"/>
<g transform="matrix(0.9999999999999999, 0, 0, 0.9999999999999999, 5.21852081459096, 10.089140241542516)">
		<path d="M 32.20800018310547 32.00699996948242 L 38.56700134277344 52.9640007019043 L 42.57699966430664 45.9739990234375 L 47.76900100708008 51.92399978637695 L 49.856998443603516 50.10200119018555 L 44.72800064086914 44.220001220703125 L 51.7130012512207 41.499000549316406 Z" fill="#FAFBF3"/>
	</g>
</svg>