<?xml version="1.0" encoding="utf-8"?>
<!-- Generator: Adobe Illustrator 19.0.0, SVG Export Plug-In . SVG Version: 6.00 Build 0)  -->
<svg version="1.1" id="Layer_1" xmlns="http://www.w3.org/2000/svg" xmlns:xlink="http://www.w3.org/1999/xlink" x="0px" y="0px"
	 viewBox="0 0 1400 980" style="enable-background:new 0 0 1400 980;" xml:space="preserve">
<style type="text/css">
	.st0{fill:#3EA2AF;}
	.st1{fill:#348899;}
	.st2{fill:#42B6BE;}
	.st3{fill:#F1F2F2;}
	.st4{fill:#333333;}
	.st5{fill:#3A3A3A;}
	.st6{fill:#D1D3D4;}
	.st7{fill:#BCBEC0;}
	.st8{fill:#3D99A5;}
	.st9{fill:#F5CB95;}
	.st10{fill:#F2C333;}
	.st11{fill:#E2B432;}
	.st12{fill:#EABE8E;}
	.st13{fill:#FFFFFF;}
	.st14{fill:#E3E3E3;}
	.st15{fill:#89C462;}
	.st16{fill:#73AF50;}
	.st17{fill:#F2EFDF;}
</style>
<g id="XMLID_1959_">
	<rect id="XMLID_1471_" y="0" class="st0" width="1400" height="490"/>
	<rect id="XMLID_1457_" y="490" class="st1" width="1400" height="490"/>
	<g id="XMLID_254_">
		<g id="XMLID_327_">
			<rect id="XMLID_369_" x="1047.5" y="107.9" class="st2" width="300.9" height="10.1"/>
			<rect id="XMLID_371_" x="1047.5" y="52.8" class="st2" width="248.2" height="36"/>
			<rect id="XMLID_368_" x="1047.5" y="134.5" class="st2" width="300.9" height="10.1"/>
			<rect id="XMLID_367_" x="1047.5" y="161.1" class="st2" width="300.9" height="10.1"/>
			<rect id="XMLID_366_" x="1047.5" y="187.6" class="st2" width="300.9" height="10.1"/>
			<rect id="XMLID_328_" x="1047.5" y="214.2" class="st2" width="300.9" height="10.1"/>
			<rect id="XMLID_373_" x="1047.5" y="240.8" class="st2" width="300.9" height="10.1"/>
			<rect id="XMLID_1385_" x="1047.5" y="267.4" class="st2" width="300.9" height="10.1"/>
			<rect id="XMLID_1384_" x="1047.5" y="294" class="st2" width="300.9" height="10.1"/>
			<rect id="XMLID_1383_" x="1047.5" y="320.5" class="st2" width="300.9" height="10.1"/>
			<rect id="XMLID_1382_" x="1047.5" y="347.1" class="st2" width="300.9" height="10.1"/>
			<rect id="XMLID_378_" x="1047.5" y="373.7" class="st2" width="300.9" height="10.1"/>
			<rect id="XMLID_1386_" x="1047.5" y="400.3" class="st2" width="300.9" height="10.1"/>
			<rect id="XMLID_376_" x="1073.7" y="426.9" class="st2" width="248.4" height="10.1"/>
			<rect id="XMLID_1958_" x="1311.8" y="52.8" class="st2" width="36.5" height="36.5"/>
		</g>
	</g>
	<path id="XMLID_2059_" class="st3" d="M724.4,665.2H121.8c-10.4,0-18.8-8.4-18.8-18.8V277.2c0-10.4,8.4-18.8,18.8-18.8h602.6
		c10.4,0,18.8,8.4,18.8,18.8v369.3C743.2,656.8,734.8,665.2,724.4,665.2z"/>
	<path id="XMLID_2058_" class="st4" d="M132.8,283.1c-2.8,0-5.1,2.3-5.1,5.1v347.3c0,2.8,2.3,5.1,5.1,5.1h580.6
		c2.8,0,5.1-2.3,5.1-5.1V288.2c0-2.8-2.3-5.1-5.1-5.1H132.8z"/>
	<path id="XMLID_2057_" class="st5" d="M718.5,633.3V288.2c0-2.8-2.3-5.1-5.1-5.1l-573.6,0C180.8,348.8,640.5,633.9,718.5,633.3z"/>
	<path id="XMLID_2056_" class="st3" d="M694.7,721.6H151.5c-6.8,0-12.3-5.5-12.3-12.3l0,0c0-6.8,5.5-12.3,12.3-12.3h543.2
		c6.8,0,12.3,5.5,12.3,12.3l0,0C707.1,716.1,701.5,721.6,694.7,721.6z"/>
	<rect id="XMLID_2055_" x="315.2" y="665.2" class="st6" width="215.8" height="31.7"/>
	<path id="XMLID_2054_" class="st7" d="M315.2,665.2c0,21.1,215.8,21.1,215.8,0H315.2z"/>
	<path id="XMLID_1371_" class="st8" d="M242.4,855.3H178c-2.1,0-3.7,1.7-3.7,3.7v64.3c0,2.1,1.7,3.7,3.7,3.7h64.3
		c2.1,0,3.7-1.7,3.7-3.7V859C246.1,856.9,244.4,855.3,242.4,855.3z M191.5,920.3h-10.3v-31.9h10.3V920.3z M207.5,920.3h-10.3v-45.5
		h10.3V920.3z M223.5,920.3h-10.3V862h10.3V920.3z M239.5,920.3h-10.3v-24.6h10.3V920.3z"/>
	<circle id="XMLID_1500_" class="st8" cx="1197.9" cy="749.8" r="150.4"/>
	<path id="XMLID_1499_" class="st3" d="M1249.8,822.1c0,7.2-5.9,13.1-13.1,13.1H1119c-7.2,0-13.1-5.9-13.1-13.1V579.4
		c0-7.2,5.9-13.1,13.1-13.1h117.7c7.2,0,13.1,5.9,13.1,13.1V822.1z"/>
	<path id="XMLID_1498_" class="st4" d="M1232.3,785.6h-108.2c-2.8,0-5.1-2.3-5.1-5.1V604.5c0-2.8,2.3-5.1,5.1-5.1h108.2
		c2.8,0,5.1,2.3,5.1,5.1v175.9C1237.5,783.3,1235.2,785.6,1232.3,785.6z"/>
	<path id="XMLID_1447_" class="st5" d="M1118.9,604.5c0-2.8,2.3-5.1,5.1-5.1h108.2c2.8,0,5.1,2.3,5.1,5.1v175.9
		C1187.5,738.9,1149.2,678.2,1118.9,604.5z"/>
	<path id="XMLID_1496_" class="st4" d="M1181.6,819.7h-8.7c-2.5,0-4.5-2-4.5-4.5v-8.7c0-2.5,2-4.5,4.5-4.5h8.7c2.5,0,4.5,2,4.5,4.5
		v8.7C1186.1,817.6,1184.1,819.7,1181.6,819.7z"/>
	<path id="XMLID_1494_" class="st9" d="M1279.6,771v-76.5c-0.5-0.1-1.1-0.1-1.6-0.1c-6.5,0-11.8,5.5-11.8,12.3v18.2h-3v-24.4
		c0-6.8-5.3-12.3-11.8-12.3s-11.8,5.5-11.8,12.3v24.4h-3.7v-34.2c0-6.8-5.3-12.3-11.8-12.3c-6.5,0-11.8,5.5-11.8,12.3v34.2h-3v-92.4
		c0-6.8-5.3-12.3-11.8-12.3c-6.5,0-11.8,5.5-11.8,12.3v92.4v43v3.9l-1.8-2l-11.6-32.6c-2.7-7.6-10.8-11.6-18.1-9
		c-3.7,1.3-6.5,4.1-8,7.5c-1.4,3.3-1.7,7.2-0.3,10.9l6,16.9l7.5,21l0,0c0,0,31.9,46.8,40.2,46.6c0,0,0.1,0,0.2,0v11.4
		c18.6-11.7,48.2-16.4,61.7-21.2C1281.2,814.1,1279.6,771,1279.6,771z"/>
	<ellipse id="XMLID_1493_" class="st3" cx="1197.1" cy="632.5" rx="8.5" ry="8.8"/>
	<path id="XMLID_1492_" class="st3" d="M1157.7,745.4c-2.1-5.8-7.3-9.5-12.9-9.8c-1.4,3.3-1.7,7.2-0.3,10.9l6,16.9
		C1157,760.4,1160.2,752.6,1157.7,745.4z"/>
	<rect id="XMLID_1491_" x="1197.4" y="859.3" class="st10" width="79.2" height="120.7"/>
	<path id="XMLID_1490_" class="st11" d="M1276.6,871.2c0,9.6-79.2,9.6-79.2,0V859h79.2V871.2z"/>
	<path id="XMLID_1489_" class="st12" d="M1272.8,859.1c0.6,0,1.2,0,1.8,0.1V831c17.1-1,15.3-18.7,15.3-18.7v-28.4v-59v-18.2
		c0-6.2-4.5-11.4-10.2-12.2V771c0,0,1.6,43.1-18.5,50.2c-13.5,4.8-43.1,9.4-61.7,21.2v16.9c0.9-0.1,1.8-0.2,2.8-0.2H1272.8z"/>
	<g id="XMLID_1487_">
		<path id="XMLID_1486_" class="st13" d="M1143.8,503.8c-1.6,0-2.9,1.3-2.9,2.9v14.5c0,1.6,1.3,2.9,2.9,2.9s2.9-1.3,2.9-2.9v-14.5
			C1146.7,505.2,1145.4,503.8,1143.8,503.8z"/>
		<path id="XMLID_1478_" class="st13" d="M1078.8,532.5c-1.2-1.2-3-1.2-4.2,0s-1.2,3,0,4.2l10.3,10.3c1.2,1.2,3,1.2,4.2,0
			c1.2-1.2,1.2-3,0-4.2L1078.8,532.5z"/>
		<path id="XMLID_1473_" class="st13" d="M1063.4,598.7h-14.5c-1.6,0-2.9,1.3-2.9,2.9s1.3,2.9,2.9,2.9h14.5c1.6,0,2.9-1.3,2.9-2.9
			S1065.1,598.7,1063.4,598.7z"/>
	</g>
	<path id="XMLID_372_" class="st4" d="M1206.1,585.7h-55.8c-0.8,0-1.4-0.6-1.4-1.4l0,0c0-0.8,0.6-1.4,1.4-1.4h55.8
		c0.8,0,1.4,0.6,1.4,1.4l0,0C1207.5,585.1,1206.9,585.7,1206.1,585.7z"/>
	<g id="XMLID_1337_">
		<polygon id="XMLID_1338_" class="st2" points="346.6,90.6 342.8,118.5 351.1,115.1 351.9,117 354.7,123.9 364.2,120 361.3,113.1 
			360.6,111.2 368.9,107.8 		"/>
		<path id="XMLID_1573_" class="st2" d="M452.9,184.4h-59.5c-3.1,0-5.6,2.5-5.6,5.6v36.4c0,3.1,2.5,5.6,5.6,5.6h20.1l7.9,13.8
			c0.7,1.3,2.6,1.3,3.3,0l7.9-13.8h5v-19.3H433V206h4.7v-2.4c0-2.7,0.3-4.7,0.9-6c0.6-1.3,1.6-2.4,3.2-3.2c1.5-0.8,3.5-1.3,5.8-1.3
			c2.4,0,4.8,0.4,7.1,1.1l-1.1,5.9c-1.3-0.3-2.6-0.5-3.9-0.5c-1.2,0-2.1,0.3-2.6,0.9c-0.5,0.6-0.8,1.7-0.8,3.3v2.3h6.3v6.7h-6.3V232
			h6.7c3.1,0,5.6-2.5,5.6-5.6V190C458.5,186.9,456,184.4,452.9,184.4z"/>
		<path id="XMLID_1576_" class="st2" d="M397,152.6c-3.4-1.6-6.2-4-7.9-7.8c0,0,0,0,0,0c0-8.2-6.6-14.8-14.8-14.8
			c-8.2,0-14.8,6.6-14.8,14.8c0,2.1,0.4,4.1,1.2,5.9c-7.7,2.4-16.2-0.8-20.2-8.2c-1.6-2.8-2.2-5.9-2.1-8.9c-0.8,0.3-1.5,0.6-2.2,1
			c-8.3,4.6-11.4,15-6.8,23.3c1.2,2.1,2.7,3.9,4.5,5.3c-4.3-0.4-8.3-1.8-11.8-4c-0.2,1.3-0.3,2.7-0.3,4.1c0,16,12.9,28.9,28.9,28.9
			s28.9-12.9,28.9-28.9c0-1.6-0.1-3.1-0.4-4.7c2.1-0.7,4-2,5.6-3.5C389.2,155.2,393.4,154.5,397,152.6z M380.7,144.5
			c0-1.7,1.4-3.1,3.1-3.1c1.7,0,3.1,1.4,3.1,3.1s-1.4,3.1-3.1,3.1C382.1,147.6,380.7,146.2,380.7,144.5z"/>
		<path id="XMLID_1585_" class="st2" d="M580.6,96.9c-17.3-9.9-26.1,7.8-26.1,7.8s-8.7-17.6-26-7.7c-27.3,19.2,26.1,55.2,26.1,55.2
			S604.1,116.6,580.6,96.9z M581.7,113.9h-9v9.1h-3.9v-9.1h-9v-3.8h9v-9h3.9v9h9V113.9z"/>
		<circle id="XMLID_1586_" class="st2" cx="358.5" cy="64.4" r="19"/>
		<path id="XMLID_1589_" class="st2" d="M421.9,64.4c0-10.5-8.5-19-19-19c-10.5,0-19,8.5-19,19s8.5,19,19,19
			C413.4,83.4,421.9,74.9,421.9,64.4z M402.9,75.6c-6.2,0-11.2-5-11.2-11.2s5-11.2,11.2-11.2s11.2,5,11.2,11.2
			S409.1,75.6,402.9,75.6z"/>
		<path id="XMLID_1593_" class="st2" d="M494.1,139.9c-18.9,0-34.2,9.5-34.2,21.2c0,10.7,12.8,19.5,29.4,21
			c3.1,7,11.1,10.7,18.6,8.5c0,0,0,0,0.1,0c-2.6-1.9-4.7-4.7-5.7-8.1c-0.1-0.2-0.1-0.5-0.2-0.7c15.1-2.2,26.3-10.6,26.3-20.6
			C528.4,149.4,513,139.9,494.1,139.9z M486.5,144.6c1-0.5,1.8-0.7,2.4-0.5c0.6,0.2,1.2,0.9,1.9,2.1c1.7,3.2,1.4,5.5-0.9,6.8
			l-0.8,0.4c0-2-0.5-3.9-1.4-5.7c-0.5-1-1.2-1.9-1.9-2.7L486.5,144.6z M495.4,177.1c-1.9-1.7-3.6-3.5-5.2-5.6
			c-1.6-2.1-3-4.3-4.4-6.7c-1.3-2.5-2.4-5-3.2-7.5c-0.8-2.5-1.4-4.9-1.7-7.4c1-1.7,2.4-3.2,4.1-4.5c0.7,0.9,1.4,1.8,1.9,2.7
			c0.8,1.6,1.3,3.5,1.4,5.7l-0.4,0.2c-1.6,0.9-1.1,3.8,1.5,8.7c2.7,5.1,4.9,7.2,6.5,6.3l0.4-0.2c1.9,1.2,3.3,2.6,4.1,4.2
			c0.5,1,0.9,2.1,1,3.2C499.6,176.9,497.6,177.2,495.4,177.1z M504.9,173.6c-0.2,0.6-0.8,1.3-1.9,1.9l-0.7,0.4
			c-0.2-1.3-0.6-2.4-1-3.3c-0.9-1.7-2.2-3.1-4-4.2l0.6-0.3c2.5-1.3,4.6-0.4,6.3,2.8C504.8,172,505.1,172.9,504.9,173.6z"/>
		<circle id="XMLID_1596_" class="st2" cx="295.2" cy="90.6" r="12.5"/>
		<path id="XMLID_1597_" class="st2" d="M305.1,101.8c-2.6,2.4-6.1,3.8-9.9,3.8c-3.8,0-7.3-1.4-9.9-3.8c-3.7,1.9-6.3,5.7-6.3,10.2
			v21h32.4v-21C311.4,107.5,308.8,103.6,305.1,101.8z"/>
		<path id="XMLID_1598_" class="st2" d="M331.6,125.7v-21c0-4.5-2.6-8.3-6.3-10.2c-2.6,2.4-6.1,3.8-9.9,3.8c-2.5,0-4.9-0.6-7-1.7
			c-0.6,1.3-1.3,2.4-2.2,3.5c4.5,2.3,7.2,6.9,7.2,11.9v13.8H331.6z"/>
		<path id="XMLID_1599_" class="st2" d="M315.4,95.9c6.9,0,12.5-5.6,12.5-12.5s-5.6-12.5-12.5-12.5c-5.3,0-9.9,3.3-11.7,8
			c3.6,2.6,6,6.9,6,11.7c0,1.3-0.2,2.5-0.5,3.7C311,95.3,313.1,95.9,315.4,95.9z"/>
		<path id="XMLID_1600_" class="st2" d="M284.2,100c-0.9-1-1.6-2.2-2.2-3.5c-2.1,1.1-4.5,1.7-7,1.7c-3.8,0-7.3-1.4-9.9-3.8
			c-3.7,1.9-6.3,5.7-6.3,10.2v21H277v-13.8C277,106.9,279.8,102.4,284.2,100z"/>
		<path id="XMLID_1601_" class="st2" d="M286.7,78.9c-1.8-4.7-6.3-8-11.7-8c-6.9,0-12.5,5.6-12.5,12.5s5.6,12.5,12.5,12.5
			c2.2,0,4.4-0.6,6.2-1.6c-0.3-1.2-0.5-2.4-0.5-3.7C280.7,85.8,283.1,81.5,286.7,78.9z"/>
		<path id="XMLID_1604_" class="st2" d="M426.3,172.9c1,0.9,2.6,0.9,3.6-0.1l12.2-11.4c0.9-0.9,1.4-2,1.4-3.3v-40.8
			c0-1.7-1.4-3.2-3.2-3.2H415c-1.7,0-3.2,1.4-3.2,3.2v40.8c0,1.3,0.6,2.5,1.5,3.4L426.3,172.9z M427.7,157.6c1.8,0,3.2,1.5,3.2,3.2
			s-1.5,3.2-3.2,3.2c-1.8,0-3.2-1.5-3.2-3.2S425.9,157.6,427.7,157.6z"/>
		<circle id="XMLID_1605_" class="st2" cx="462.2" cy="81.3" r="8.8"/>
		<path id="XMLID_1608_" class="st2" d="M480.9,80.6c0-10.3-8.4-18.7-18.7-18.7c-10.3,0-18.7,8.4-18.7,18.7
			c0,10.3,18.7,49.3,18.7,49.3S480.9,90.9,480.9,80.6z M449.6,81.3c0-7,5.7-12.7,12.7-12.7s12.7,5.7,12.7,12.7S469.2,94,462.2,94
			S449.6,88.3,449.6,81.3z"/>
		<path id="XMLID_1609_" class="st2" d="M243.6,39.2c0-8.5-6.6-15.5-14.8-15.5h0c0-10.1-7.9-18.3-17.6-18.3
			c-6.3,0-11.8,3.5-14.9,8.7c-1.7-1.1-3.7-1.7-5.8-1.7c-6,0-10.9,5.1-10.9,11.4c0,0.2,0,0.4,0,0.6c-1.3-0.4-2.6-0.6-3.9-0.6
			c-8.2,0-14.8,6.9-14.8,15.5c0,8.5,6.6,15.5,14.8,15.5h53.1C236.9,54.7,243.6,47.7,243.6,39.2z"/>
		<path id="XMLID_1648_" class="st2" d="M242.1,74.8c3.3,0,6-2.7,6-6c0-3.3-2.7-6-6-6c-3.3,0-6,2.7-6,6c0,0.5,0.1,1.1,0.2,1.6
			l-17,8.7c-1.1-1.5-2.9-2.5-4.9-2.5c-3.3,0-6,2.7-6,6c0,3.3,2.7,6,6,6c2,0,3.8-1,4.9-2.5l17,8.7c-0.1,0.5-0.2,1-0.2,1.6
			c0,3.3,2.7,6,6,6c3.3,0,6-2.7,6-6c0-3.3-2.7-6-6-6c-1.9,0-3.6,0.9-4.7,2.2l-17.1-8.8c0.1-0.4,0.1-0.8,0.1-1.2c0-0.4,0-0.8-0.1-1.2
			l17.1-8.8C238.5,74,240.2,74.8,242.1,74.8z M242.1,65.3c1.9,0,3.5,1.6,3.5,3.5c0,1.9-1.6,3.5-3.5,3.5c-0.9,0-1.7-0.3-2.3-0.9
			c-0.6-0.6-1.1-1.4-1.2-2.3c0-0.1,0-0.2,0-0.4C238.6,66.9,240.2,65.3,242.1,65.3z M217,85c-0.6,0.7-1.5,1.1-2.6,1.1
			c-1.9,0-3.5-1.6-3.5-3.5s1.6-3.5,3.5-3.5c1,0,1.9,0.4,2.6,1.1c0.6,0.6,0.9,1.5,0.9,2.4C217.9,83.6,217.6,84.4,217,85z M238.6,96.1
			c0.1-0.9,0.5-1.7,1.2-2.3c0.6-0.5,1.4-0.9,2.3-0.9c1.9,0,3.5,1.6,3.5,3.5s-1.6,3.5-3.5,3.5s-3.5-1.6-3.5-3.5
			C238.6,96.4,238.6,96.3,238.6,96.1z"/>
		<path id="XMLID_1653_" class="st2" d="M540.7,76c1.9,0,3.4-1.5,3.4-3.4c0-1.9-1.5-3.4-3.4-3.4s-3.4,1.5-3.4,3.4
			c0,0.3,0,0.6,0.1,0.9l-9.6,4.9c-0.6-0.8-1.6-1.4-2.7-1.4c-1.9,0-3.4,1.5-3.4,3.4c0,1.9,1.5,3.4,3.4,3.4c1.1,0,2.1-0.6,2.7-1.4
			l9.6,4.9c-0.1,0.3-0.1,0.6-0.1,0.9c0,1.9,1.5,3.4,3.4,3.4s3.4-1.5,3.4-3.4c0-1.9-1.5-3.4-3.4-3.4c-1.1,0-2,0.5-2.6,1.2l-9.6-5
			c0-0.2,0.1-0.5,0.1-0.7c0-0.2,0-0.5-0.1-0.7l9.6-5C538.7,75.5,539.7,76,540.7,76z M540.7,70.7c1.1,0,2,0.9,2,2c0,1.1-0.9,2-2,2
			c-0.5,0-1-0.2-1.3-0.5c-0.4-0.3-0.6-0.8-0.7-1.3c0-0.1,0-0.1,0-0.2C538.8,71.5,539.6,70.7,540.7,70.7z M526.6,81.8
			c-0.4,0.4-0.9,0.6-1.4,0.6c-1.1,0-2-0.9-2-2c0-1.1,0.9-2,2-2c0.6,0,1.1,0.2,1.4,0.6c0.3,0.4,0.5,0.8,0.5,1.3
			S526.9,81.4,526.6,81.8z M538.8,88c0.1-0.5,0.3-1,0.7-1.3c0.3-0.3,0.8-0.5,1.3-0.5c1.1,0,2,0.9,2,2c0,1.1-0.9,2-2,2s-2-0.9-2-2
			C538.8,88.2,538.8,88.1,538.8,88z"/>
		<path id="XMLID_1663_" class="st2" d="M383.9,115.3C383.9,115.3,383.9,115.3,383.9,115.3c3.7,1.1,7.6-0.7,9.1-4.1
			c8.1-0.7,14.4-5,14.4-10.3c0-5.7-7.5-10.4-16.8-10.4c-9.3,0-16.8,4.6-16.8,10.4c0,4.9,5.5,9,12.9,10.1c0,0.1-0.1,0.2-0.1,0.4
			C386.2,113,385.2,114.4,383.9,115.3z M396.8,99.5c1,0,1.8,0.8,1.8,1.8s-0.8,1.8-1.8,1.8s-1.8-0.8-1.8-1.8S395.8,99.5,396.8,99.5z
			 M384.5,103.1c-1,0-1.8-0.8-1.8-1.8s0.8-1.8,1.8-1.8s1.8,0.8,1.8,1.8S385.5,103.1,384.5,103.1z M390.6,99.5c1,0,1.8,0.8,1.8,1.8
			s-0.8,1.8-1.8,1.8c-1,0-1.8-0.8-1.8-1.8S389.6,99.5,390.6,99.5z"/>
		<path id="XMLID_1667_" class="st2" d="M370.6,31.1c0,0.7,0.2,1.3,0.6,1.8c0.4,0.5,1,0.8,1.7,1c0,0.3-0.1,0.6-0.1,0.8
			c0,1.8,1,2.8,3.1,2.9c0,0.2-0.1,0.4-0.1,0.5c0,2,1.4,3,4.2,3h1.2l1-0.5c1.2,0.3,2.3,0.5,3.3,0.5c0.3,0,0.7,0,1.2-0.1
			c0.2,0,0.4-0.1,0.6-0.2c2.1-1,4.2-2.6,6-4.8h4.2c0.9-2.2,1.4-4.5,1.4-6.7c0-2.3-0.5-4.5-1.5-6.7h-3.3c-0.8,0-1.3-0.1-1.7-0.4
			c-0.3-0.3-0.9-1-1.8-2.1l-0.8-1c-0.9-1.2-1.5-2-1.9-2.4l-2.7-2.8c-1.7-1.8-2.9-4-3.4-6.4l-0.6-2.6l-0.8,0.2
			c-3,0.7-4.4,2.5-4.4,5.3c0,1,0.5,2.5,1.5,4.3l0.5,0.8c0.8,1.6,1.3,3.2,1.6,4.9h-0.7c-2.8,0-5,0.5-6.7,1.4
			c-1.7,0.9-2.5,2.2-2.5,3.7c0,1.3,0.5,2.6,1.5,3.7C370.8,29.9,370.6,30.5,370.6,31.1z"/>
		<path id="XMLID_1668_" class="st2" d="M400.1,29.4c0,2.2-0.5,4.5-1.4,6.7h4.1c0.9-2.2,1.4-4.5,1.4-6.7c0-2.3-0.5-4.5-1.5-6.7h-3.3
			c-0.3,0-0.5,0-0.8-0.1l0,0.1C399.5,24.8,400.1,27.1,400.1,29.4z"/>
		<path id="XMLID_1669_" class="st2" d="M161.1,20.5c0,1.1,0.8,1.6,2.3,1.6h0.7l0.6-0.3c0.7,0.2,1.3,0.3,1.8,0.3c0.2,0,0.4,0,0.7,0
			c0.1,0,0.2,0,0.4-0.1c1.2-0.6,2.3-1.4,3.3-2.6h2.3c0.5-1.2,0.8-2.5,0.8-3.7c0-1.3-0.3-2.5-0.8-3.7h-1.8c-0.4,0-0.7-0.1-0.9-0.2
			c-0.2-0.1-0.5-0.5-1-1.2l-0.4-0.6c-0.5-0.7-0.8-1.1-1-1.3l-1.5-1.6c-0.9-1-1.6-2.2-1.9-3.5l-0.3-1.4l-0.5,0.1
			c-1.6,0.4-2.4,1.3-2.4,2.9c0,0.6,0.3,1.4,0.8,2.4l0.2,0.4c0.4,0.9,0.7,1.8,0.9,2.7h-0.4c-1.5,0-2.7,0.3-3.7,0.8
			c-0.9,0.5-1.4,1.2-1.4,2.1c0,0.7,0.3,1.4,0.8,2c-0.2,0.4-0.3,0.7-0.3,1c0,0.4,0.1,0.7,0.3,1c0.2,0.3,0.5,0.4,0.9,0.6
			c0,0.2,0,0.3,0,0.4c0,1,0.6,1.5,1.7,1.6C161.1,20.3,161.1,20.4,161.1,20.5z"/>
		<path id="XMLID_1670_" class="st2" d="M174.4,15.7c0,1.2-0.3,2.5-0.8,3.7h2.2c0.5-1.2,0.8-2.5,0.8-3.7c0-1.3-0.3-2.5-0.8-3.7H174
			c-0.2,0-0.3,0-0.4,0l0,0C174.1,13.2,174.4,14.5,174.4,15.7z"/>
		<path id="XMLID_1671_" class="st2" d="M591.8,61.1v2.7h8.7c3.7,0,6.8-3.2,6.8-7c0-3.9-3-7-6.8-7c0-4.6-3.6-8.3-8-8.3
			c-2.9,0-5.4,1.6-6.8,3.9c-0.8-0.5-1.7-0.8-2.6-0.8c-2.7,0-5,2.3-5,5.2c0,0.1,0,0.2,0,0.3c-0.6-0.2-1.2-0.3-1.8-0.3
			c-3.7,0-6.8,3.2-6.8,7c0,3.9,3,7,6.8,7h8.7v-2.7v-0.8h-2.2l5.6-9.7l5.6,9.7h-2.2V61.1z"/>
		<path id="XMLID_1672_" class="st2" d="M602.5,90.1l6.1-11.7l-4.6-8.8c-0.7,0.3-1.3,0.8-1.7,1.5l-9.8,18.9h0c0,0,0,0,0,0
			c-0.1,0.1-0.1,0.3,0,0.4l3.5,6.8c0.4,0.7,1.1,1.3,2,1.5L602.5,90.1L602.5,90.1z"/>
		<path id="XMLID_1673_" class="st2" d="M613.1,69.3l-8.1,0L615.1,89h10c0,0,0-0.1-0.1-0.1l-9.2-17.8
			C615.3,70.1,614.2,69.3,613.1,69.3z"/>
		<path id="XMLID_1674_" class="st2" d="M614.9,90.1l-5.8,0l-5.5,0L599,99l10.1,0l10.2,0c0.3,0,0.6,0,0.9-0.1c0.8-0.2,1.6-0.8,2-1.5
			l2.9-5.6c0.3-0.5,0.4-1,0.3-1.6h-9.7L614.9,90.1z"/>
		<path id="XMLID_1675_" class="st2" d="M549.3,80.9l0,0.1c0,0.1,0,0.2,0,0.2c0,0.1,0,0.2,0,0.2c0,0.2,0,0.3,0.1,0.5
			c0,0.1,0,0.2,0.1,0.2l0,0.1l0,0.1c0,0.1,0.1,0.3,0.1,0.4c0,0,0,0,0,0.1c0,0.1,0.1,0.2,0.1,0.2c0,0.1,0.1,0.2,0.1,0.2
			c0.5,1.2,1.4,2.3,2.5,3c0.3,0.2,0.6,0.4,0.9,0.5c0.3,0.1,0.6,0.3,1,0.4c0.3,0.1,0.7,0.2,1,0.2c0.3,0,0.7,0.1,1,0.1
			c0.7,0,1.4-0.1,2-0.3c0.7-0.2,1.3-0.5,1.9-0.9c1.1-0.7,2-1.8,2.6-3c0.1-0.1,0.1-0.3,0.2-0.4c0-0.1,0.1-0.2,0.1-0.2l0-0.1l0-0.1
			c0.1-0.3,0.2-0.6,0.2-0.9c0.1-0.6,0.1-1.2,0-1.8c-0.1-0.6-0.2-1.2-0.4-1.7c-0.2-0.5-0.4-1-0.7-1.4c-0.6-0.9-1.3-1.5-2-2
			c-0.4-0.2-0.7-0.4-1-0.6c-0.3-0.1-0.7-0.3-0.9-0.3c-1-0.3-1.4,0.9-0.3,1.2c0.2,0.1,0.5,0.2,0.8,0.3c0.3,0.1,0.6,0.3,0.8,0.5
			c0.6,0.4,1.2,0.9,1.6,1.6c0.2,0.4,0.4,0.7,0.6,1.2c0.2,0.4,0.3,0.9,0.3,1.4c0.1,0.5,0,1,0,1.5c0,0.3-0.1,0.5-0.2,0.8l0,0.1l0,0.1
			c0,0.1,0,0.1-0.1,0.2c0,0.1-0.1,0.2-0.2,0.4c-0.4,1-1.2,1.8-2.1,2.5c-0.5,0.3-1,0.5-1.5,0.7c-0.5,0.2-1.1,0.2-1.7,0.2
			c-0.3,0-0.6,0-0.8-0.1c-0.3,0-0.6-0.1-0.8-0.2c-0.3-0.1-0.5-0.2-0.8-0.3c-0.3-0.1-0.5-0.3-0.7-0.4c-0.9-0.6-1.6-1.5-2.1-2.5
			c-0.4-1-0.5-2-0.4-3c0-0.2,0.1-0.5,0.1-0.7c0.1-0.2,0.1-0.5,0.2-0.7c0.2-0.4,0.4-0.8,0.6-1.2c0.5-0.7,1.1-1.2,1.7-1.6
			c0,0,0.1,0,0.1-0.1c0,0,0.1,0,0.1-0.1c0,0,0,0,0.1,0c0,0,0,0,0,0c0,0,0,0,0.1,0c0.1,0,0.1-0.1,0.1-0.1l0.4,0.8
			c0,0.1,0.2,0.1,0.2,0c0.4-0.7,1-1.4,1.8-1.9c0.1-0.1,0.1-0.2,0-0.2c-0.5-0.2-1-0.4-1.5-0.6c-0.2,0-0.3-0.1-0.5-0.1
			c-0.2,0-0.3,0-0.5-0.1c-0.3,0-0.5,0-0.8,0c-0.1,0-0.2,0.1-0.1,0.2l0.4,0.8c0,0,0,0-0.1,0.1c0,0,0,0-0.1,0c0,0,0,0,0,0
			c0,0,0,0-0.1,0c0,0-0.1,0.1-0.1,0.1c0,0-0.1,0.1-0.1,0.1c-0.7,0.4-1.4,1.1-2,1.9c-0.3,0.4-0.6,0.9-0.8,1.4
			c-0.1,0.3-0.2,0.5-0.3,0.8c-0.1,0.3-0.1,0.6-0.2,0.9c0,0.3-0.1,0.6-0.1,0.9c0,0.1,0,0.2,0,0.2L549.3,80.9z"/>
		<path id="XMLID_1676_" class="st2" d="M555.9,84.3h0.7c0.2,0,0.3-0.1,0.3-0.3v-2.5c0-0.2,0.1-0.3,0.3-0.3h2.5
			c0.2,0,0.3-0.1,0.3-0.3v-0.6c0-0.2-0.1-0.3-0.3-0.3h-2.5c-0.2,0-0.3-0.1-0.3-0.3v-2.5c0-0.2-0.1-0.3-0.3-0.3h-0.7
			c-0.2,0-0.3,0.1-0.3,0.3v2.5c0,0.2-0.1,0.3-0.3,0.3h-2.5c-0.2,0-0.3,0.1-0.3,0.3v0.6c0,0.2,0.1,0.3,0.3,0.3h2.5
			c0.2,0,0.3,0.1,0.3,0.3V84C555.6,84.2,555.7,84.3,555.9,84.3z"/>
		<polygon id="XMLID_1677_" class="st2" points="514.4,110.8 499.9,120.2 514.4,129.6 		"/>
		<path id="XMLID_1678_" class="st2" d="M499.3,119.8l14.5-9.4l-13.6-8.8c-0.6-0.4-1.3-0.4-1.8,0l-13.6,8.8L499.3,119.8z"/>
		<polygon id="XMLID_1679_" class="st2" points="484.1,129.6 498.6,120.2 484.1,110.8 		"/>
		<polygon id="XMLID_1680_" class="st2" points="499.3,120.6 484.8,130 513.7,130 		"/>
		<polygon id="XMLID_1681_" class="st2" points="500.9,35.7 500.9,45 491.6,45 491.6,48.9 500.9,48.9 500.9,58.3 504.9,58.3 
			504.9,48.9 514.2,48.9 514.2,45 504.9,45 504.9,35.7 		"/>
		<path id="XMLID_1682_" class="st2" d="M534.6,26c0-2.6-2.1-4.7-4.7-4.7h-11.6c-2.6,0-4.7,2.1-4.7,4.7v4.5h21V26z"/>
		<path id="XMLID_1683_" class="st2" d="M525.1,19.4c3.4-0.4,6.1-3.2,6.5-6.5c0.6-5-3.5-9.1-8.5-8.5c-3.4,0.4-6.1,3.2-6.5,6.5
			C515.9,15.8,520.1,20,525.1,19.4z"/>
		<path id="XMLID_1684_" class="st2" d="M262.8,41.3v23h1.4V40.6C263.7,40.8,263.3,41,262.8,41.3z"/>
		<path id="XMLID_1685_" class="st2" d="M266.2,40.1c-0.5,0.1-0.9,0.1-1.4,0.3v23.8h1.4V40.1z"/>
		<path id="XMLID_1686_" class="st2" d="M256.8,64c0.4,0.1,0.9,0.2,1.4,0.2V49.1c-0.5,0-0.9,0.1-1.4,0.2V64z"/>
		<path id="XMLID_1687_" class="st2" d="M268.9,40.3v24h1.4V40.7C269.8,40.5,269.3,40.4,268.9,40.3z"/>
		<path id="XMLID_1688_" class="st2" d="M267.1,40.1c-0.1,0-0.2,0-0.3,0v24.2h1.4V40.2C267.9,40.1,267.5,40.1,267.1,40.1z"/>
		<path id="XMLID_1689_" class="st2" d="M260.8,64.2h1.4V41.7c-0.5,0.4-1,0.8-1.4,1.2V64.2z"/>
		<path id="XMLID_1693_" class="st2" d="M277.3,43.5c-1,0-2,0.3-2.8,0.8c-0.9-1.5-2.1-2.6-3.6-3.4v23.3h13.7c4,0,7.3-3.4,7.3-7.6
			c0-4.2-3.3-7.6-7.3-7.6c-0.7,0-1.3,0.1-1.9,0.3c0-0.1,0-0.2,0-0.3C282.6,46,280.2,43.5,277.3,43.5z"/>
		<path id="XMLID_1694_" class="st2" d="M254.8,63.2c0.4,0.3,0.9,0.5,1.4,0.7V49.4c-0.5,0.2-1,0.4-1.4,0.7V63.2z"/>
		<path id="XMLID_1698_" class="st2" d="M252.8,51.9v9.5c0.4,0.5,0.9,1,1.4,1.4V50.5C253.7,50.9,253.2,51.4,252.8,51.9z"/>
		<path id="XMLID_1705_" class="st2" d="M260.2,64.2V43.7c-0.6,0.9-1.1,1.9-1.4,2.9v17.6H260.2z"/>
		<path id="XMLID_1706_" class="st2" d="M252.2,60.4v-7.6c-0.6,1.1-1,2.4-1,3.8C251.2,58,251.6,59.3,252.2,60.4z"/>
		<path id="XMLID_1709_" class="st2" d="M602.3,34.4C602.3,34.4,602.3,34.4,602.3,34.4l1.2,2l2-1.3l-2.3,1.4
			c-0.3,0.2-0.4,0.6-0.2,0.9l11.6,18.3c0.2,0.3,0.6,0.4,0.9,0.2l4.6-2.9c0.3-0.2,0.4-0.6,0.2-0.9l-11.6-18.3
			c-0.2-0.3-0.6-0.4-0.9-0.2l-0.3,0.2l-1.2-1.9c0,0,0,0,0,0c5.8-5,7.2-13.6,3-20.3c-4.6-7.3-14.3-9.5-21.7-4.9
			c-7.3,4.6-9.5,14.3-4.9,21.7C586.9,35.1,595.3,37.5,602.3,34.4z M589.5,9.9c5.6-3.5,13-1.9,16.6,3.7c3.5,5.6,1.9,13-3.7,16.6
			c-5.6,3.5-13,1.9-16.6-3.7C582.2,20.8,583.9,13.4,589.5,9.9z"/>
		<polygon id="XMLID_1710_" class="st2" points="595.3,22.7 598.4,27.6 601.7,25.5 598.6,20.6 603.5,17.6 601.4,14.3 596.6,17.3 
			593.5,12.5 590.2,14.6 593.2,19.4 588.4,22.5 590.5,25.8 		"/>
		<path id="XMLID_1713_" class="st2" d="M675.4,41.1v-34c0-1.2-1-2.2-2.2-2.2h-43.4c-1.2,0-2.2,1-2.2,2.2v34c0,1.2,1,2.2,2.2,2.2
			h-6.4V47h56.3v-3.7h-6.4C674.4,43.3,675.4,42.3,675.4,41.1z M631,10.3c0-1.4,1.2-2.6,2.6-2.6h35.7c1.4,0,2.6,1.2,2.6,2.6v27.6
			c0,1.4-1.2,2.6-2.6,2.6h-35.7c-1.4,0-2.6-1.2-2.6-2.6V10.3z"/>
		<path id="XMLID_1714_" class="st2" d="M666.5,35h-28.9v-2.8l6.4-6.4l2.2-2.2l0.8-0.8l0.2-0.2l0.1-0.1c0,0,0,0,0.1,0l0.1,0.1
			l0.4,0.4l4.8,4.8l1.7,1.7l0.2,0.2c0.1,0.1,0.1,0.2,0.2,0.1l0.4-0.4l0.9-0.9l3.1-3.1l3.6-3.6l1.7,1.7l0.8-3.1l1.2-4.3l-4.3,1.2
			l-3.1,0.8l1.7,1.7l-3.6,3.6l-1.9,1.9l-0.4,0.4l-0.2,0.2c0,0.1-0.1,0-0.1,0l-0.1-0.1l-0.8-0.8l-5.3-5.3l-0.9-0.9l-0.2-0.2
			c0-0.1-0.1,0-0.1,0l-0.1,0.1l-0.4,0.4l-1.7,1.7l-2.9,2.9l-4.4,4.4V11.4h-1.3v24.9h30.2V35z"/>
		<path id="XMLID_1717_" class="st2" d="M576.2,10.5h-36.1v24.4h36.1V10.5z M567.3,24.1h-18.1c-0.8,0-1.4-0.6-1.4-1.4
			s0.6-1.4,1.4-1.4h18.1c0.8,0,1.4,0.6,1.4,1.4S568.1,24.1,567.3,24.1z"/>
		<path id="XMLID_1718_" class="st2" d="M552.4,6.5c0.5,0,1,0.4,1,1v0.2c0,0.2,0.1,0.3,0.3,0.3h20.8c0.1,0,0.1,0,0.2,0V7.2
			c0-0.3-0.3-0.6-0.6-0.6h-20.3c-0.3,0-0.6-0.3-0.6-0.6V5.8c0-0.3-0.3-0.6-0.6-0.6h-10.2c-0.3,0-0.6,0.3-0.6,0.6v0.7
			c0.1,0,0.1,0,0.2,0H552.4z"/>
		<path id="XMLID_1724_" class="st2" d="M575.1,8.9c0-0.4-0.3-0.6-0.6-0.6h-20.8c-0.4,0-0.6-0.3-0.6-0.6V7.5c0-0.4-0.3-0.6-0.6-0.6
			h-10.4c-0.4,0-0.6,0.3-0.6,0.6v0.8v1.9h33.8V8.9z"/>
		<path id="XMLID_1727_" class="st2" d="M488.3,76.1c-0.6,1.5-0.9,3.1-0.9,4.9c0,1.7,0.3,3.2,0.8,4.6c0.6,1.4,1.4,2.6,2.5,3.6
			c1.1,1,2.5,1.8,4.1,2.3c1.6,0.5,3.4,0.8,5.4,0.8c1.3,0,2.6-0.1,3.7-0.4c1.1-0.2,2.2-0.6,3.1-1.1c0.9-0.5,1.7-1,2.4-1.7
			c0.7-0.7,1.2-1.5,1.7-2.3h-2.6c-0.7,0.9-1.6,1.6-2.7,2.1c-1,0.5-2.3,0.8-3.8,1c-1.9,0.2-3.6,0.1-5.1-0.2c-1.5-0.3-2.8-0.9-3.9-1.7
			c-1.1-0.8-1.9-1.8-2.4-2.9c-0.6-1.2-0.8-2.4-0.8-3.9c0-1.1,0.1-2.1,0.4-3.1c0.3-1,0.6-1.9,1.1-2.8c0.6-1,1.3-1.8,2.1-2.4
			c0.8-0.6,1.8-1.1,2.9-1.5c1.1-0.3,2.3-0.5,3.7-0.5c1.3,0,2.5,0.2,3.5,0.5c1,0.4,1.9,0.9,2.6,1.5c0.7,0.6,1.2,1.4,1.6,2.3
			c0.4,0.9,0.6,1.8,0.6,2.8c0,1.2-0.3,2.3-0.8,3.3c-0.5,1-1.1,1.8-1.8,2.4c-0.7,0.6-1.3,0.9-1.7,0.9c-0.1,0-0.2-0.1-0.3-0.2
			c-0.1-0.1-0.1-0.3-0.1-0.4c0-0.2,0.1-0.5,0.2-1.1l1.9-8.8h-3.2l-0.3,1.4c-0.7-1.1-1.8-1.7-3.2-1.7c-1.3,0-2.4,0.4-3.4,1.2
			c-1,0.8-1.8,1.8-2.4,3.1c-0.6,1.2-0.8,2.5-0.8,3.8c0,1.2,0.3,2.3,0.8,3.1c0.5,0.8,1.2,1.4,2.1,1.8c0.9,0.4,1.8,0.4,2.7,0.3
			c0.9-0.2,1.7-0.6,2.5-1.3c0.1,0.5,0.4,0.8,0.7,1.1c0.4,0.2,0.9,0.3,1.5,0.3c1.1,0,2.2-0.2,3.2-0.7c1-0.5,1.8-1.1,2.6-2
			s1.3-1.8,1.7-2.8c0.4-1,0.6-2.1,0.6-3.2c0-1.4-0.2-2.7-0.7-3.9c-0.5-1.2-1.2-2.2-2.1-3c-0.9-0.8-2-1.5-3.3-2
			c-1.3-0.5-2.7-0.7-4.3-0.7c-1.9,0-3.6,0.3-5.2,0.9c-1.6,0.6-2.9,1.5-4,2.6C489.7,73.3,488.9,74.6,488.3,76.1z M500.8,81.4
			c-0.3,0.9-0.7,1.7-1.3,2.3c-0.6,0.6-1.3,0.9-2,0.9c-0.7,0-1.2-0.3-1.6-0.8c-0.4-0.5-0.6-1.3-0.6-2.3c0-1,0.2-1.9,0.5-2.8
			c0.3-0.9,0.8-1.6,1.3-2.2c0.6-0.6,1.2-0.8,1.9-0.8c0.4,0,0.7,0.1,1,0.2c0.3,0.1,0.5,0.3,0.7,0.6c0.2,0.3,0.4,0.6,0.5,0.9
			c0.1,0.3,0.2,0.7,0.2,1.2C501.2,79.6,501.1,80.5,500.8,81.4z"/>
		<polygon id="XMLID_1728_" class="st2" points="625.2,64.1 635.6,64 635.6,52.6 625.2,53.7 		"/>
		<polygon id="XMLID_1729_" class="st2" points="636.8,64 647.3,63.9 647.3,51.3 636.8,52.4 		"/>
		<polygon id="XMLID_1730_" class="st2" points="625.2,75.7 635.6,76.7 635.6,65.3 625.2,65.3 		"/>
		<polygon id="XMLID_1731_" class="st2" points="636.8,76.8 647.3,77.9 647.3,65.3 636.8,65.3 		"/>
		<path id="XMLID_1734_" class="st2" d="M694.6,20.1c3.2,0,5.8-2.6,5.8-5.8s-2.6-5.8-5.8-5.8s-5.8,2.6-5.8,5.8
			S691.4,20.1,694.6,20.1z M694.6,10.9c1.9,0,3.5,1.6,3.5,3.5s-1.6,3.5-3.5,3.5c-1.9,0-3.5-1.6-3.5-3.5S692.7,10.9,694.6,10.9z"/>
		<path id="XMLID_1735_" class="st2" d="M694.6,21.4c-3.2,0-5.9-2.2-6.8-5.1h-5.4V22c0,0.8,0.6,1.4,1.4,1.4h21.5
			c0.8,0,1.4-0.6,1.4-1.4v-5.7h-5.4C700.5,19.3,697.8,21.4,694.6,21.4z"/>
		<path id="XMLID_1740_" class="st2" d="M705.4,5.3h-21.5c-0.8,0-1.4,0.6-1.4,1.4V15h5.1c0-0.2,0-0.4,0-0.7c0-3.9,3.2-7.1,7.1-7.1
			s7.1,3.2,7.1,7.1c0,0.2,0,0.4,0,0.7h5.1V6.7C706.8,5.9,706.1,5.3,705.4,5.3z M705.3,8.5c0,0.2-0.2,0.4-0.4,0.4h-2.3
			c-0.2,0-0.4-0.2-0.4-0.4V7.1c0-0.2,0.2-0.4,0.4-0.4h2.3c0.2,0,0.4,0.2,0.4,0.4V8.5z"/>
		<path id="XMLID_1743_" class="st2" d="M463.4,52.3V38.4c0-2.6-2.1-4.8-4.8-4.8h-20c-2.6,0-4.8,2.1-4.8,4.8v13.9
			c0,2.6,2.1,4.8,4.8,4.8h20C461.3,57.1,463.4,55,463.4,52.3z M442,53.1V37.6l15.7,7.7L442,53.1z"/>
		<polygon id="XMLID_1744_" class="st2" points="486.1,28.8 494.4,26.3 502.7,28.8 502.9,20.1 507.9,12.9 499.7,10.1 494.4,3.1 
			489.1,10.1 480.9,12.9 485.9,20.1 		"/>
		<path id="XMLID_1745_" class="st2" d="M529.5,45.5h28.7c-0.3-3.2-3-5.7-6.2-5.7h-23.7c-2.4,0-4.3,1.9-4.3,4.3v20.6l3.7-17.5
			C528,46.2,528.7,45.5,529.5,45.5z"/>
		<path id="XMLID_1746_" class="st2" d="M558.2,66.4l-0.4-0.1l0.4-1.7l3.5-16.4c0.1-0.6,0-1.3-0.3-1.7c-0.1-0.2-0.3-0.4-0.6-0.4
			h-2.5h-28.8c-0.4,0-0.9,0.5-1,1.1l-4,19.1L558.2,66.4L558.2,66.4z"/>
		<polygon id="XMLID_1747_" class="st2" points="524.1,66.4 524.1,66.4 524.1,66.4 		"/>
		<path id="XMLID_1748_" class="st2" d="M584.9,83.2c-0.3-0.2-0.8-0.2-1.1,0l-2.2,1.6c-0.3,0.2-0.8,0.2-1-0.1
			c-1.3-0.9-2.5-2-3.7-3.4c-0.3-0.3-0.5-0.6-0.7-0.9c-0.7-1.2-1.3-2.4-1.6-3.8c-0.1-0.3,0-0.6,0.2-0.7l1.6-1.3
			c0.3-0.3,0.5-0.7,0.4-1.2l-0.8-4.5c-0.1-0.5-0.5-0.9-1-1l-1.6-0.3c-0.2,0-0.5,0-0.7,0.1c-0.8,0.5-1.4,1.1-1.9,1.9
			c-0.4,0.5-0.6,1.1-0.8,1.8c-0.3,1.2-0.7,3.3-0.1,5c0.8,2.4,2.6,6,3.8,7.6c1.2,1.6,5.5,6.5,9,6.7c3.5,0.2,5.3-0.8,5.7-1.6
			c0.3-0.5,0.5-1.6,0.6-2.2c0-0.3,0-0.5-0.2-0.7C587.5,85,586.2,84,584.9,83.2z"/>
		<path id="XMLID_1751_" class="st2" d="M471.6,48.8c1.5,1.5,3.2,2.4,5.1,2.8l2,3.6l2-3.6c1.9-0.4,3.7-1.3,5.2-2.8
			c3.9-3.9,3.9-10.3,0-14.3c-3.9-3.9-10.3-3.9-14.3,0C467.6,38.4,467.6,44.8,471.6,48.8z M482.5,40c0.7,0,1.2,0.5,1.2,1.2
			s-0.5,1.2-1.2,1.2s-1.2-0.5-1.2-1.2S481.8,40,482.5,40z M478.7,40c0.7,0,1.2,0.5,1.2,1.2s-0.5,1.2-1.2,1.2c-0.7,0-1.2-0.5-1.2-1.2
			S478,40,478.7,40z M474.9,40c0.7,0,1.2,0.5,1.2,1.2s-0.5,1.2-1.2,1.2c-0.7,0-1.2-0.5-1.2-1.2S474.3,40,474.9,40z"/>
		<path id="XMLID_1756_" class="st2" d="M725.4,1.2c-3.1-1.8-7.1-0.8-8.9,2.4s-0.8,7.1,2.4,8.9c3.1,1.8,7.1,0.8,8.9-2.4
			C729.5,7,728.5,3.1,725.4,1.2z M726.6,9.5c-1.4,2.5-4.6,3.3-7,1.9c-2.5-1.4-3.3-4.6-1.9-7c1.4-2.5,4.6-3.3,7-1.9
			C727.2,3.8,728,7,726.6,9.5z"/>
		<path id="XMLID_1757_" class="st2" d="M718.5,14.2l-1-0.6c-0.4-0.2-0.9-0.1-1.2,0.3l-2.7,4.7c-0.2,0.4-0.1,0.9,0.3,1.2l1,0.6
			c0.4,0.2,0.9,0.1,1.2-0.3l2.7-4.7C719,15,718.9,14.5,718.5,14.2z"/>
		<path id="XMLID_1758_" class="st2" d="M718.1,12.4l-0.6,1c0,0,0.1,0,0.1,0.1l1,0.6c0,0,0.1,0.1,0.1,0.1l0.6-1
			c-0.2-0.1-0.4-0.2-0.6-0.3C718.5,12.6,718.3,12.5,718.1,12.4z"/>
		<path id="XMLID_1759_" class="st2" d="M720.1,10.4c-0.1-0.1-0.2,0-0.3,0.1s0,0.2,0.1,0.3c2.1,1.2,5,0.5,6.2-1.6
			c0.1-0.1,0-0.2-0.1-0.3c-0.1-0.1-0.2,0-0.3,0.1C724.6,10.8,722,11.5,720.1,10.4z"/>
		<path id="XMLID_1760_" class="st2" d="M428,80.3v-2c0-0.2-0.2-0.3-0.3-0.3c-0.2,0-0.3,0.2-0.3,0.3v2c0,0.2,0.2,0.3,0.3,0.3
			C427.9,80.6,428,80.4,428,80.3z"/>
		<path id="XMLID_1761_" class="st2" d="M420.3,83.4c0.1,0.1,0.3,0.1,0.5,0c0.1-0.1,0.1-0.3,0-0.5l-1.4-1.4c-0.1-0.1-0.3-0.1-0.5,0
			c-0.1,0.1-0.1,0.3,0,0.5L420.3,83.4z"/>
		<path id="XMLID_1762_" class="st2" d="M415.6,90c-0.2,0-0.3,0.2-0.3,0.3c0,0.2,0.2,0.3,0.3,0.3h2c0.2,0,0.3-0.2,0.3-0.3
			c0-0.2-0.2-0.3-0.3-0.3H415.6z"/>
		<path id="XMLID_1763_" class="st2" d="M418.9,99.1c0.1,0.1,0.3,0.1,0.5,0l1.4-1.4c0.1-0.1,0.1-0.3,0-0.5c-0.1-0.1-0.3-0.1-0.5,0
			l-1.4,1.4C418.8,98.7,418.8,98.9,418.9,99.1z"/>
		<path id="XMLID_1764_" class="st2" d="M435,97.1c-0.1-0.1-0.3-0.1-0.5,0c-0.1,0.1-0.1,0.3,0,0.5l1.4,1.4c0.1,0.1,0.3,0.1,0.5,0
			c0.1-0.1,0.1-0.3,0-0.5L435,97.1z"/>
		<path id="XMLID_1765_" class="st2" d="M437.7,90c-0.2,0-0.3,0.2-0.3,0.3s0.2,0.3,0.3,0.3h2c0.2,0,0.3-0.2,0.3-0.3
			s-0.2-0.3-0.3-0.3H437.7z"/>
		<path id="XMLID_1766_" class="st2" d="M436.4,81.5c-0.1-0.1-0.3-0.1-0.5,0l-1.4,1.4c-0.1,0.1-0.1,0.3,0,0.5c0.1,0.1,0.3,0.1,0.5,0
			l1.4-1.4C436.6,81.9,436.6,81.7,436.4,81.5z"/>
		<path id="XMLID_1769_" class="st2" d="M419.2,90.3c0,3.2,1.7,6,4.3,7.4v1.9l-0.1,0c-0.2,0-0.4,0.2-0.4,0.5c0,0.2,0.2,0.4,0.4,0.4
			c0,0,0,0,0,0v0.8l-0.1,0c-0.2,0-0.4,0.2-0.4,0.5c0,0.2,0.2,0.4,0.4,0.4c0,0,0,0,0,0l0,0c0.2,0.6,0.7,1.1,1.4,1.1h5.5
			c0.8,0,1.4-0.6,1.4-1.4v-0.4l0.1,0c0.2,0,0.4-0.2,0.4-0.5c0-0.2-0.2-0.4-0.4-0.4v-0.9l0.1,0c0.2,0,0.4-0.2,0.4-0.5
			c0-0.2-0.2-0.4-0.4-0.4v-1.2c2.6-1.5,4.3-4.2,4.3-7.4c0-4.7-3.8-8.5-8.5-8.5C423,81.8,419.2,85.6,419.2,90.3z M424.7,91.9
			C424.7,91.9,424.7,91.9,424.7,91.9c0.5,0,0.7,0.1,0.9,0.3c0.2,0.1,0.3,0.3,0.7,0.3c0.3,0,0.5-0.1,0.7-0.3c0.2-0.1,0.4-0.3,0.8-0.3
			s0.6,0.2,0.8,0.3c0.2,0.1,0.3,0.3,0.7,0.3c0.3,0,0.5-0.1,0.7-0.3c0.2-0.1,0.4-0.3,0.8-0.3c0,0,0.1,0,0.1,0c0,0,0,0.1,0,0.1
			l-1.5,5.7H429c0,0,0,0,0,0l1.5-5.6c-0.2,0-0.4,0.1-0.5,0.3c-0.2,0.1-0.4,0.3-0.8,0.3s-0.6-0.2-0.8-0.3c-0.2-0.1-0.3-0.3-0.7-0.3
			c-0.3,0-0.5,0.1-0.7,0.3c-0.2,0.1-0.4,0.3-0.8,0.3c-0.4,0-0.6-0.2-0.8-0.3c-0.2-0.1-0.3-0.2-0.5-0.3l1.5,5.6c0,0,0,0,0,0h-0.2
			L424.7,91.9C424.7,92,424.7,92,424.7,91.9z"/>
		<path id="XMLID_1770_" class="st2" d="M329.2,54c0,0,0.1,0,0.1,0c-4.9-3.6-8.7-8.7-10.6-15c-0.1-0.5-0.3-0.9-0.4-1.4
			C346,33.6,366.7,18.3,367.1,0h-33.2c0,0.3,0.1,0.5,0.1,0.8c0,3.8-3.1,6.8-6.8,6.8s-6.8-3.1-6.8-6.8c0-0.3,0-0.6,0.1-0.8h-9.8
			c0,0.3,0.1,0.5,0.1,0.8c0,3.8-3.1,6.8-6.8,6.8c-3.8,0-6.8-3.1-6.8-6.8c0-0.3,0-0.6,0.1-0.8h-9.8c0,0.3,0.1,0.5,0.1,0.8
			c0,3.8-3.1,6.8-6.8,6.8s-6.8-3.1-6.8-6.8c0-0.3,0-0.6,0.1-0.8h-33.2c0.5,19.5,24,35.6,54.5,38.3C300.6,51.2,315.2,58.2,329.2,54z"
			/>
		<path id="XMLID_1771_" class="st2" d="M412.2,22.5c0.8,1.5,2.3,2.6,4,3.1l9.2-17.7l0,0l4.1-7.9h-20.3l-4.1,7.9c0,0,0,0,0,0.1
			c-0.1,0.3-0.1,0.6,0,0.8L412.2,22.5z"/>
		<path id="XMLID_1772_" class="st2" d="M471.3,5.8c0-0.1-0.1-0.2-0.1-0.3L468.3,0H448l3,5.8H471.3z"/>
		<path id="XMLID_1773_" class="st2" d="M418.2,25.9l20.5,0l20.7,0c0.6,0,1.3-0.1,1.9-0.3c1.7-0.5,3.2-1.6,4-3.1l5.9-11.4
			c0.5-1,0.7-2.1,0.7-3.2h-19.7l-1.7,0l-11.7,0l-11.2,0L418.2,25.9z"/>
		<path id="XMLID_1774_" class="st2" d="M151.3,3.2c-0.4-1-0.9-2-1.5-2.9c-0.1-0.1-0.2-0.2-0.3-0.3h-3.3c0.5,0.5,1,1.1,1.4,1.7
			c0.5,0.7,0.9,1.5,1.2,2.4c0.3,0.9,0.5,1.8,0.7,2.8c0.1,1,0.1,2-0.1,3c-0.1,0.5-0.2,1-0.3,1.5l-0.1,0.2l-0.1,0.2
			c0,0.1-0.1,0.2-0.1,0.4c-0.1,0.2-0.2,0.5-0.3,0.7c-0.9,1.9-2.3,3.7-4.2,4.9c-0.9,0.6-2,1.1-3,1.4c-1.1,0.3-2.2,0.5-3.4,0.5
			c-0.6,0-1.1-0.1-1.7-0.1c-0.6-0.1-1.1-0.2-1.6-0.4c-0.5-0.2-1.1-0.4-1.6-0.6c-0.5-0.2-1-0.5-1.5-0.8c-1.8-1.3-3.3-3-4.1-5
			c-0.8-2-1.1-4.1-0.8-6c0.1-0.5,0.2-1,0.3-1.4c0.1-0.5,0.3-0.9,0.4-1.3c0.3-0.9,0.8-1.6,1.2-2.3c0.4-0.6,0.9-1.1,1.3-1.6h-3.3
			c0,0.1-0.1,0.1-0.1,0.1C126,1,125.5,2,125.1,3c-0.2,0.5-0.4,1.1-0.5,1.6c-0.1,0.6-0.3,1.1-0.3,1.7c-0.1,0.6-0.1,1.2-0.1,1.8
			c0,0.2,0,0.3,0,0.5l0,0.2l0,0.2c0,0.2,0,0.3,0,0.5c0,0.2,0,0.3,0.1,0.5c0,0.3,0.1,0.6,0.2,0.9c0,0.2,0.1,0.3,0.1,0.5l0.1,0.2
			l0.1,0.2c0.1,0.2,0.2,0.6,0.3,0.8c0,0,0,0.1,0,0.1c0,0.2,0.1,0.3,0.2,0.5c0.1,0.1,0.1,0.3,0.2,0.4c1,2.4,2.8,4.5,5,6.1
			c0.6,0.4,1.2,0.7,1.8,1c0.6,0.3,1.3,0.5,1.9,0.8c0.7,0.2,1.3,0.4,2,0.5c0.7,0.1,1.4,0.2,2.1,0.2c1.4,0,2.8-0.2,4.1-0.6
			c1.3-0.4,2.6-1,3.7-1.7c2.3-1.5,4.1-3.6,5.1-6c0.1-0.3,0.3-0.6,0.4-0.9c0.1-0.2,0.1-0.3,0.2-0.5l0.1-0.2l0.1-0.2
			c0.2-0.6,0.3-1.2,0.4-1.8c0.2-1.2,0.2-2.5,0.1-3.6C152,5.4,151.7,4.3,151.3,3.2z"/>
		<path id="XMLID_1775_" class="st2" d="M131.2,9.4h4.9c0.4,0,0.7,0.3,0.7,0.7v5c0,0.4,0.3,0.7,0.7,0.7h1.3c0.4,0,0.7-0.3,0.7-0.7
			v-5c0-0.4,0.3-0.7,0.7-0.7h4.9c0.4,0,0.7-0.3,0.7-0.7V7.4c0-0.4-0.3-0.7-0.7-0.7h-4.9c-0.4,0-0.7-0.3-0.7-0.7V1.2
			c0-0.4-0.3-0.7-0.7-0.7h-1.3c-0.4,0-0.7,0.3-0.7,0.7v4.9c0,0.4-0.3,0.7-0.7,0.7h-4.9c-0.4,0-0.7,0.3-0.7,0.7v1.3
			C130.6,9.1,130.9,9.4,131.2,9.4z"/>
	</g>
	<g id="XMLID_1511_">
		<path id="XMLID_1513_" class="st13" d="M812.9,878c0.3,0.1,0.6,0.2,0.9,0.2c0.7,0,1.4-0.4,1.8-1.1c1.3-2.7,2.7-5.4,3.9-8.2
			c0.5-1,0-2.2-1-2.7c-1-0.5-2.2,0-2.7,1c-1.3,2.7-2.6,5.4-3.9,8.1C811.5,876.3,811.9,877.5,812.9,878z"/>
		<path id="XMLID_1514_" class="st13" d="M838.1,819.1c0.2,0.1,0.5,0.1,0.7,0.1c0.8,0,1.6-0.5,1.9-1.3c1-2.8,2-5.7,3-8.6
			c0.4-1-0.2-2.2-1.2-2.5c-1-0.4-2.2,0.2-2.5,1.2c-1,2.8-2,5.7-3,8.5C836.6,817.5,837.1,818.7,838.1,819.1z"/>
		<path id="XMLID_1515_" class="st13" d="M750.8,980c0.5-0.6,0.9-1.2,1.4-1.8c0.7-0.9,0.5-2.1-0.3-2.8c-0.9-0.7-2.1-0.5-2.8,0.3
			c-1.1,1.4-2.2,2.8-3.3,4.3H750.8z"/>
		<path id="XMLID_1516_" class="st13" d="M797.9,906.3c0.3,0.2,0.6,0.3,1,0.3c0.7,0,1.4-0.4,1.7-1c1.5-2.6,2.9-5.3,4.4-7.9
			c0.5-1,0.2-2.2-0.8-2.7c-1-0.5-2.2-0.2-2.7,0.8c-1.4,2.6-2.9,5.3-4.3,7.9C796.6,904.5,796.9,905.8,797.9,906.3z"/>
		<path id="XMLID_1517_" class="st13" d="M832.1,407.3c0.2,0,0.5,0,0.7-0.1c1-0.4,1.5-1.6,1.1-2.6c-1.1-2.8-2.2-5.6-3.4-8.3
			c-0.4-1-1.6-1.5-2.6-1.1c-1,0.4-1.5,1.6-1.1,2.6c1.1,2.7,2.3,5.5,3.4,8.3C830.5,406.8,831.3,407.3,832.1,407.3z"/>
		<path id="XMLID_1518_" class="st13" d="M826.3,848.9c0.3,0.1,0.5,0.2,0.8,0.2c0.8,0,1.5-0.5,1.8-1.2c1.2-2.8,2.3-5.6,3.5-8.4
			c0.4-1-0.1-2.2-1.1-2.6c-1-0.4-2.2,0.1-2.6,1.1c-1.1,2.8-2.3,5.6-3.4,8.3C824.8,847.3,825.3,848.4,826.3,848.9z"/>
		<path id="XMLID_1519_" class="st13" d="M805.2,349.4c0.3,0,0.6-0.1,0.9-0.2c1-0.5,1.3-1.7,0.8-2.7c-1.4-2.6-2.9-5.3-4.3-7.9
			c-0.5-1-1.7-1.3-2.7-0.8c-1,0.5-1.3,1.8-0.8,2.7c1.4,2.6,2.9,5.2,4.3,7.9C803.8,349,804.5,349.4,805.2,349.4z"/>
		<path id="XMLID_1520_" class="st13" d="M763.3,960.2c0.4,0.3,0.8,0.4,1.2,0.4c0.6,0,1.2-0.3,1.6-0.8c1.8-2.5,3.5-4.9,5.2-7.4
			c0.6-0.9,0.4-2.2-0.5-2.8c-0.9-0.6-2.2-0.4-2.8,0.5c-1.7,2.4-3.4,4.9-5.2,7.3C762.2,958.3,762.4,959.5,763.3,960.2z"/>
		<path id="XMLID_1521_" class="st13" d="M789.5,321.6c0.4,0,0.7-0.1,1-0.3c0.9-0.6,1.2-1.8,0.7-2.7c-1.6-2.6-3.1-5.2-4.7-7.7
			c-0.6-0.9-1.8-1.2-2.8-0.6c-0.9,0.6-1.2,1.8-0.6,2.8c1.6,2.5,3.1,5.1,4.7,7.6C788.1,321.3,788.8,321.6,789.5,321.6z"/>
		<path id="XMLID_1522_" class="st13" d="M753.4,268.9c0.4,0,0.9-0.1,1.2-0.4c0.9-0.7,1-1.9,0.4-2.8c-1.8-2.4-3.7-4.8-5.5-7.1
			c-0.7-0.9-1.9-1-2.8-0.3c-0.9,0.7-1,1.9-0.3,2.8c1.8,2.3,3.7,4.7,5.5,7.1C752.2,268.6,752.8,268.9,753.4,268.9z"/>
		<path id="XMLID_1523_" class="st13" d="M772.2,294.8c0.4,0,0.8-0.1,1.1-0.3c0.9-0.6,1.1-1.9,0.5-2.8c-1.7-2.5-3.4-5-5.1-7.4
			c-0.6-0.9-1.9-1.1-2.8-0.5c-0.9,0.6-1.1,1.9-0.5,2.8c1.7,2.4,3.4,4.9,5.1,7.4C770.9,294.5,771.5,294.8,772.2,294.8z"/>
		<path id="XMLID_1524_" class="st13" d="M781.3,933.7c0.3,0.2,0.7,0.3,1.1,0.3c0.7,0,1.3-0.3,1.7-0.9c1.6-2.5,3.2-5.1,4.8-7.7
			c0.6-0.9,0.3-2.2-0.7-2.8c-0.9-0.6-2.2-0.3-2.8,0.7c-1.6,2.5-3.2,5.1-4.8,7.6C780.1,931.9,780.4,933.1,781.3,933.7z"/>
		<path id="XMLID_1525_" class="st13" d="M819.4,378c0.3,0,0.6-0.1,0.8-0.2c1-0.5,1.4-1.7,1-2.7c-1.3-2.7-2.6-5.4-3.8-8.1
			c-0.5-1-1.7-1.4-2.7-0.9c-1,0.5-1.4,1.7-0.9,2.7c1.3,2.7,2.6,5.4,3.8,8.1C818,377.5,818.7,378,819.4,378z"/>
		<path id="XMLID_1526_" class="st13" d="M863.4,726.5c0.1,0,0.2,0,0.4,0c0.9,0,1.8-0.7,2-1.6c0.5-3,1.1-5.9,1.5-8.9
			c0.2-1.1-0.6-2.1-1.6-2.3c-1.1-0.2-2.1,0.6-2.3,1.6c-0.5,2.9-1,5.9-1.5,8.8C861.6,725.3,862.3,726.3,863.4,726.5z"/>
		<path id="XMLID_1527_" class="st13" d="M860,487.7c-0.3-1.1-1.3-1.7-2.4-1.5c-1.1,0.3-1.7,1.3-1.5,2.4c0.7,2.9,1.3,5.9,2,8.8
			c0.2,0.9,1,1.6,2,1.6c0.1,0,0.3,0,0.4,0c1.1-0.2,1.8-1.3,1.5-2.4C861.3,493.6,860.7,490.7,860,487.7z"/>
		<path id="XMLID_1528_" class="st13" d="M866.4,519.2c-0.2-1.1-1.2-1.8-2.3-1.6c-1.1,0.2-1.8,1.2-1.6,2.3c0.5,2.9,1,5.9,1.5,8.8
			c0.2,1,1,1.7,2,1.7c0.1,0,0.2,0,0.3,0c1.1-0.2,1.8-1.2,1.7-2.3C867.4,525.1,866.9,522.1,866.4,519.2z"/>
		<path id="XMLID_1529_" class="st13" d="M871,550.9c-0.1-1.1-1.1-1.9-2.2-1.8c-1.1,0.1-1.9,1.1-1.8,2.2c0.3,2.9,0.7,5.9,1,8.9
			c0.1,1,1,1.8,2,1.8c0.1,0,0.1,0,0.2,0c1.1-0.1,1.9-1.1,1.8-2.2C871.7,556.9,871.4,553.9,871,550.9z"/>
		<path id="XMLID_1530_" class="st13" d="M856.7,757.8c0.2,0,0.3,0.1,0.5,0.1c0.9,0,1.7-0.6,1.9-1.5c0.7-2.9,1.4-5.9,2-8.8
			c0.2-1.1-0.4-2.1-1.5-2.4c-1.1-0.2-2.1,0.4-2.4,1.5c-0.6,2.9-1.3,5.8-2,8.7C854.9,756.5,855.6,757.6,856.7,757.8z"/>
		<path id="XMLID_1531_" class="st13" d="M873,613C873,613,873,613,873,613c-1.1,0-2,0.9-2,2c0,1.7,0,3.4,0,5.1c0,3,0,6-0.1,9
			c0,1.1,0.9,2,2,2c0,0,0,0,0,0c1.1,0,2-0.9,2-2c0-3,0.1-6,0.1-9c0-1.7,0-3.4,0-5.2C875,613.9,874.1,613,873,613z"/>
		<path id="XMLID_1532_" class="st13" d="M848.3,788.7c0.2,0.1,0.4,0.1,0.6,0.1c0.9,0,1.7-0.6,1.9-1.4c0.9-2.9,1.7-5.8,2.5-8.7
			c0.3-1.1-0.3-2.2-1.4-2.5c-1.1-0.3-2.2,0.3-2.5,1.4c-0.8,2.9-1.7,5.8-2.5,8.6C846.6,787.2,847.2,788.4,848.3,788.7z"/>
		<path id="XMLID_1533_" class="st13" d="M872.4,594C872.4,594,872.5,594,872.4,594c1.2-0.1,2.1-1,2-2.1c-0.1-3-0.3-6-0.5-9
			c-0.1-1.1-1-1.9-2.1-1.9c-1.1,0.1-1.9,1-1.9,2.1c0.2,3,0.4,6,0.5,9C870.5,593.2,871.3,594,872.4,594z"/>
		<path id="XMLID_1534_" class="st13" d="M852.4,467.9c0.2,0,0.4,0,0.5-0.1c1.1-0.3,1.7-1.4,1.4-2.5c-0.8-2.9-1.6-5.8-2.5-8.7
			c-0.3-1.1-1.4-1.7-2.5-1.4c-1.1,0.3-1.7,1.4-1.4,2.5c0.8,2.8,1.6,5.7,2.4,8.6C850.7,467.3,851.5,467.9,852.4,467.9z"/>
		<path id="XMLID_1535_" class="st13" d="M843.1,437.3c0.2,0,0.4,0,0.6-0.1c1-0.4,1.6-1.5,1.3-2.5c-1-2.9-1.9-5.7-2.9-8.5
			c-0.4-1-1.5-1.6-2.6-1.2c-1,0.4-1.6,1.5-1.2,2.6c1,2.8,2,5.6,2.9,8.5C841.4,436.8,842.2,437.3,843.1,437.3z"/>
		<path id="XMLID_1536_" class="st13" d="M873.6,661.2c0.2-3,0.4-6,0.6-9c0.1-1.1-0.8-2-1.9-2.1c-1.1-0.1-2,0.8-2.1,1.9
			c-0.2,3-0.3,6-0.6,9c-0.1,1.1,0.8,2.1,1.9,2.1c0,0,0.1,0,0.1,0C872.7,663.1,873.6,662.3,873.6,661.2z"/>
		<path id="XMLID_1538_" class="st13" d="M869.8,682c-1.1-0.1-2.1,0.7-2.2,1.8c-0.3,3-0.7,6-1,8.9c-0.1,1.1,0.6,2.1,1.7,2.2
			c0.1,0,0.2,0,0.3,0c1,0,1.9-0.7,2-1.8c0.4-3,0.7-6,1.1-9C871.7,683.1,870.9,682.1,869.8,682z"/>
		<path id="XMLID_1564_" class="st13" d="M8,112.9c-0.5-1-1.8-1.3-2.7-0.8c-1.7,1-3.5,2-5.2,3v4.6c2.4-1.4,4.8-2.8,7.2-4.1
			C8.2,115,8.5,113.8,8,112.9z"/>
		<path id="XMLID_1571_" class="st13" d="M26.4,104.9c0.3,0,0.6-0.1,0.9-0.2c2.6-1.3,5.3-2.7,8-4c1-0.5,1.4-1.7,0.9-2.7
			c-0.5-1-1.7-1.4-2.7-0.9c-2.7,1.3-5.4,2.7-8,4.1c-1,0.5-1.4,1.7-0.9,2.7C25,104.6,25.7,104.9,26.4,104.9z"/>
		<path id="XMLID_1572_" class="st13" d="M55.2,91.1c0.3,0,0.5-0.1,0.8-0.2c2.7-1.2,5.5-2.4,8.2-3.6c1-0.4,1.5-1.6,1.1-2.6
			c-0.4-1-1.6-1.5-2.6-1.1c-2.7,1.2-5.5,2.4-8.2,3.6c-1,0.5-1.5,1.6-1,2.6C53.7,90.7,54.4,91.1,55.2,91.1z"/>
		<path id="XMLID_1577_" class="st13" d="M114.8,68.4c0.2,0,0.4,0,0.6-0.1c2.9-0.9,5.7-1.8,8.6-2.7c1.1-0.3,1.7-1.4,1.3-2.5
			c-0.3-1.1-1.4-1.7-2.5-1.3c-2.8,0.9-5.7,1.8-8.6,2.7c-1.1,0.3-1.6,1.5-1.3,2.5C113.2,67.8,114,68.4,114.8,68.4z"/>
		<path id="XMLID_1578_" class="st13" d="M145.6,59.5c0.2,0,0.3,0,0.5-0.1c2.9-0.8,5.8-1.5,8.7-2.2c1.1-0.3,1.7-1.3,1.5-2.4
			c-0.3-1.1-1.3-1.7-2.4-1.5c-2.9,0.7-5.8,1.4-8.8,2.2c-1.1,0.3-1.7,1.4-1.4,2.4C143.9,58.9,144.7,59.5,145.6,59.5z"/>
		<path id="XMLID_1579_" class="st13" d="M84.6,79c0.2,0,0.5,0,0.7-0.1c2.8-1.1,5.6-2.1,8.4-3.1c1-0.4,1.6-1.5,1.2-2.6
			s-1.5-1.6-2.6-1.2c-2.8,1-5.6,2.1-8.5,3.2c-1,0.4-1.5,1.5-1.2,2.6C83.1,78.5,83.8,79,84.6,79z"/>
		<path id="XMLID_1580_" class="st13" d="M711.8,220.4c0.5,0,1-0.2,1.4-0.6c0.8-0.8,0.8-2,0.1-2.8c-2.1-2.2-4.2-4.3-6.3-6.5
			c-0.8-0.8-2-0.8-2.8,0c-0.8,0.8-0.8,2,0,2.8c2.1,2.1,4.2,4.3,6.2,6.4C710.8,220.2,711.3,220.4,711.8,220.4z"/>
		<path id="XMLID_1584_" class="st13" d="M663.9,176.2c0.4,0.3,0.8,0.5,1.3,0.5c0.6,0,1.1-0.2,1.5-0.7c0.7-0.8,0.6-2.1-0.2-2.8
			c-2.3-1.9-4.7-3.9-7-5.8c-0.9-0.7-2.1-0.6-2.8,0.3c-0.7,0.9-0.6,2.1,0.3,2.8C659.2,172.3,661.6,174.2,663.9,176.2z"/>
		<path id="XMLID_1592_" class="st13" d="M612.8,137.9c0.3,0.2,0.7,0.3,1.1,0.3c0.6,0,1.3-0.3,1.7-0.9c0.6-0.9,0.4-2.2-0.6-2.8
			c-2.5-1.7-5.1-3.3-7.6-5c-0.9-0.6-2.2-0.3-2.8,0.6c-0.6,0.9-0.3,2.2,0.6,2.8C607.8,134.6,610.3,136.3,612.8,137.9z"/>
		<path id="XMLID_1776_" class="st13" d="M689.1,197.9c0.5,0,1.1-0.2,1.5-0.6c0.8-0.8,0.7-2.1-0.1-2.8c-2.2-2.1-4.4-4.1-6.6-6.1
			c-0.8-0.7-2.1-0.7-2.8,0.1s-0.7,2.1,0.1,2.8c2.2,2,4.4,4,6.6,6.1C688.1,197.7,688.6,197.9,689.1,197.9z"/>
		<path id="XMLID_1777_" class="st13" d="M733.3,244.1c0.5,0,0.9-0.2,1.3-0.5c0.8-0.7,0.9-2,0.2-2.8c-1.9-2.3-3.9-4.6-5.9-6.8
			c-0.7-0.8-2-0.9-2.8-0.2c-0.8,0.7-0.9,2-0.2,2.8c2,2.2,3.9,4.5,5.9,6.8C732.2,243.8,732.7,244.1,733.3,244.1z"/>
		<path id="XMLID_1778_" class="st13" d="M638.9,156.3c0.4,0.3,0.8,0.4,1.2,0.4c0.6,0,1.2-0.3,1.6-0.8c0.7-0.9,0.5-2.1-0.4-2.8
			c-2.4-1.8-4.9-3.6-7.3-5.4c-0.9-0.6-2.1-0.5-2.8,0.4c-0.6,0.9-0.4,2.1,0.4,2.8C634,152.8,636.5,154.6,638.9,156.3z"/>
	</g>
	<circle id="XMLID_1387_" class="st2" cx="754" cy="277.5" r="91.4"/>
	<g id="XMLID_1445_">
		<path id="XMLID_1448_" class="st13" d="M754,354.3c-42.3,0-76.8-34.4-76.8-76.8c0-42.3,34.4-76.8,76.8-76.8s76.8,34.4,76.8,76.8
			C830.8,319.8,796.3,354.3,754,354.3z M754,202.7c-41.2,0-74.8,33.5-74.8,74.8s33.5,74.8,74.8,74.8s74.8-33.5,74.8-74.8
			S795.2,202.7,754,202.7z"/>
	</g>
	<g id="XMLID_1359_">
		<rect id="XMLID_1363_" x="290.5" y="783.6" class="st8" width="376.6" height="10.2"/>
		<rect id="XMLID_1362_" x="290.5" y="803.9" class="st8" width="376.6" height="10.2"/>
		<rect id="XMLID_1361_" x="290.5" y="763.4" class="st8" width="376.6" height="10.2"/>
		<rect id="XMLID_1360_" x="290.5" y="824.1" class="st8" width="376.6" height="10.2"/>
	</g>
	<g id="XMLID_980_">
		<rect id="XMLID_1031_" x="290.5" y="876.4" class="st8" width="376.6" height="10.2"/>
		<rect id="XMLID_983_" x="290.5" y="896.6" class="st8" width="376.6" height="10.2"/>
		<rect id="XMLID_982_" x="290.5" y="856.2" class="st8" width="376.6" height="10.2"/>
		<rect id="XMLID_981_" x="290.5" y="916.9" class="st8" width="376.6" height="10.2"/>
	</g>
	<path id="XMLID_1369_" class="st8" d="M245.9,763.4h-66.1c-1.3,0-2.4,1.1-2.4,2.4v66.1c0,1.3,1.1,2.4,2.4,2.4h66.1
		c1.3,0,2.4-1.1,2.4-2.4v-66.1C248.2,764.5,247.2,763.4,245.9,763.4z M230,814.8h-34.4c-5.3,0-9.6-4.5-9.6-10c0-5.5,4.3-10,9.6-10
		c0.9,0,1.7,0.1,2.6,0.4c0-0.1,0-0.2,0-0.4c0-4.1,3.2-7.4,7.1-7.4c1.4,0,2.7,0.4,3.7,1.1c2-3.4,5.6-5.6,9.7-5.6
		c6.3,0,11.4,5.3,11.4,11.9c5.3,0,9.6,4.5,9.6,10C239.6,810.3,235.3,814.8,230,814.8z"/>
	<g id="XMLID_1435_">
		<path id="XMLID_1434_" class="st14" d="M583.6,388.9H470.1V329c0-6.5-5.3-11.8-11.8-11.8H388c-6.5,0-11.8,5.3-11.8,11.8v59.9
			H262.6c-6.5,0-11.7,5.3-11.7,11.7v191.4c0,6.5,5.3,11.7,11.7,11.7h321c6.5,0,11.7-5.3,11.7-11.7V400.6
			C595.4,394.2,590.1,388.9,583.6,388.9z"/>
		<path id="XMLID_1433_" class="st15" d="M474.6,580.8H371.7c-2.7,0-5-2.2-5-5v-24c0-2.7,2.2-5,5-5h102.9c2.7,0,5,2.2,5,5v24
			C479.5,578.6,477.3,580.8,474.6,580.8z"/>
		<path id="XMLID_1439_" class="st16" d="M474.6,553.9H371.7c-2.7,0-5,2.2-5,5v17c0,2.7,2.2,5,5,5h102.9c2.7,0,5-2.2,5-5v-17
			C479.5,556.1,477.3,553.9,474.6,553.9z"/>
		<rect id="XMLID_1432_" x="279.5" y="468.3" class="st6" width="287.2" height="11.7"/>
		<rect id="XMLID_1429_" x="279.5" y="493.9" class="st6" width="287.2" height="11.7"/>
		<rect id="XMLID_1428_" x="331.3" y="442.8" class="st6" width="183.6" height="11.7"/>
		<rect id="XMLID_1427_" x="331.3" y="417.3" class="st6" width="183.6" height="11.7"/>
		<rect id="XMLID_1415_" x="279.5" y="519.4" class="st6" width="287.2" height="11.7"/>
		<g id="XMLID_1410_">
			<path id="XMLID_1411_" class="st10" d="M456.8,328.3h-67.4c-1.2,0-2.2,1-2.2,2.2v67.4c0,1.2,1,2.2,2.2,2.2h67.4
				c1.2,0,2.2-1,2.2-2.2v-67.4C459,329.3,458,328.3,456.8,328.3z M421.4,342.2c8.6-1.1,15.9,6.2,14.8,14.8
				c-0.7,5.9-5.5,10.6-11.4,11.4c-8.6,1.1-15.9-6.2-14.8-14.8C410.8,347.7,415.5,342.9,421.4,342.2z M441.5,387.9h-36.7V380
				c0-4.5,3.7-8.2,8.2-8.2h20.3c4.5,0,8.2,3.7,8.2,8.2V387.9z"/>
		</g>
	</g>
	<path id="XMLID_1444_" class="st17" d="M793.1,267.4L793.1,267.4L793.1,267.4c0-14.9-11.6-27-25.9-27c-9.3,0-17.4,5.1-22,12.8
		c-2.5-1.6-5.4-2.5-8.5-2.5c-8.9,0-16.1,7.5-16.1,16.7c0,0.3,0,0.5,0,0.8c-1.9-0.5-3.8-0.8-5.8-0.8c-12.1,0-21.9,10.2-21.9,22.8
		c0,12.6,9.8,22.8,21.9,22.8h78.2c12.1,0,21.9-10.2,21.9-22.8C815,277.6,805.2,267.4,793.1,267.4z"/>
	<path id="XMLID_1438_" class="st10" d="M749.9,298.8l-20.7-20.5l-20.7,20.5h6.9v14.4c0,0.8,0.6,1.4,1.4,1.4h24.7
		c0.8,0,1.4-0.6,1.4-1.4v-14.4H749.9z"/>
</g>
</svg>
